<?xml version="1.0" encoding="utf-8" standalone="no"?>
<!DOCTYPE svg PUBLIC "-//W3C//DTD SVG 1.1//EN"
  "http://www.w3.org/Graphics/SVG/1.1/DTD/svg11.dtd">
<!-- Created with matplotlib (https://matplotlib.org/) -->
<svg height="1080pt" version="1.1" viewBox="0 0 720 1080" width="720pt" xmlns="http://www.w3.org/2000/svg" xmlns:xlink="http://www.w3.org/1999/xlink">
 <defs>
  <style type="text/css">
*{stroke-linecap:butt;stroke-linejoin:round;}
  </style>
 </defs>
 <g id="figure_1">
  <g id="patch_1">
   <path d="M 0 1080 
L 720 1080 
L 720 0 
L 0 0 
z
" style="fill:#ffffff;"/>
  </g>
  <g id="axes_1">
   <g id="patch_2">
    <path d="M 90 369.423529 
L 648 369.423529 
L 648 129.6 
L 90 129.6 
z
" style="fill:#ffffff;"/>
   </g>
   <g id="matplotlib.axis_1">
    <g id="xtick_1">
     <g id="line2d_1">
      <path clip-path="url(#p2ff89197f6)" d="M 115.363636 369.423529 
L 115.363636 129.6 
" style="fill:none;stroke:#b0b0b0;stroke-linecap:square;stroke-width:0.8;"/>
     </g>
     <g id="line2d_2">
      <defs>
       <path d="M 0 0 
L 0 3.5 
" id="m24c148b266" style="stroke:#000000;stroke-width:0.8;"/>
      </defs>
      <g>
       <use style="stroke:#000000;stroke-width:0.8;" x="115.363636" xlink:href="#m24c148b266" y="369.423529"/>
      </g>
     </g>
     <g id="text_1">
      <!-- 0 -->
      <defs>
       <path d="M 31.78125 66.40625 
Q 24.171875 66.40625 20.328125 58.90625 
Q 16.5 51.421875 16.5 36.375 
Q 16.5 21.390625 20.328125 13.890625 
Q 24.171875 6.390625 31.78125 6.390625 
Q 39.453125 6.390625 43.28125 13.890625 
Q 47.125 21.390625 47.125 36.375 
Q 47.125 51.421875 43.28125 58.90625 
Q 39.453125 66.40625 31.78125 66.40625 
z
M 31.78125 74.21875 
Q 44.046875 74.21875 50.515625 64.515625 
Q 56.984375 54.828125 56.984375 36.375 
Q 56.984375 17.96875 50.515625 8.265625 
Q 44.046875 -1.421875 31.78125 -1.421875 
Q 19.53125 -1.421875 13.0625 8.265625 
Q 6.59375 17.96875 6.59375 36.375 
Q 6.59375 54.828125 13.0625 64.515625 
Q 19.53125 74.21875 31.78125 74.21875 
z
" id="DejaVuSans-48"/>
      </defs>
      <g transform="translate(112.182386 384.021967)scale(0.1 -0.1)">
       <use xlink:href="#DejaVuSans-48"/>
      </g>
     </g>
    </g>
    <g id="xtick_2">
     <g id="line2d_3">
      <path clip-path="url(#p2ff89197f6)" d="M 217.842975 369.423529 
L 217.842975 129.6 
" style="fill:none;stroke:#b0b0b0;stroke-linecap:square;stroke-width:0.8;"/>
     </g>
     <g id="line2d_4">
      <g>
       <use style="stroke:#000000;stroke-width:0.8;" x="217.842975" xlink:href="#m24c148b266" y="369.423529"/>
      </g>
     </g>
     <g id="text_2">
      <!-- 20 -->
      <defs>
       <path d="M 19.1875 8.296875 
L 53.609375 8.296875 
L 53.609375 0 
L 7.328125 0 
L 7.328125 8.296875 
Q 12.9375 14.109375 22.625 23.890625 
Q 32.328125 33.6875 34.8125 36.53125 
Q 39.546875 41.84375 41.421875 45.53125 
Q 43.3125 49.21875 43.3125 52.78125 
Q 43.3125 58.59375 39.234375 62.25 
Q 35.15625 65.921875 28.609375 65.921875 
Q 23.96875 65.921875 18.8125 64.3125 
Q 13.671875 62.703125 7.8125 59.421875 
L 7.8125 69.390625 
Q 13.765625 71.78125 18.9375 73 
Q 24.125 74.21875 28.421875 74.21875 
Q 39.75 74.21875 46.484375 68.546875 
Q 53.21875 62.890625 53.21875 53.421875 
Q 53.21875 48.921875 51.53125 44.890625 
Q 49.859375 40.875 45.40625 35.40625 
Q 44.1875 33.984375 37.640625 27.21875 
Q 31.109375 20.453125 19.1875 8.296875 
z
" id="DejaVuSans-50"/>
      </defs>
      <g transform="translate(211.480475 384.021967)scale(0.1 -0.1)">
       <use xlink:href="#DejaVuSans-50"/>
       <use x="63.623047" xlink:href="#DejaVuSans-48"/>
      </g>
     </g>
    </g>
    <g id="xtick_3">
     <g id="line2d_5">
      <path clip-path="url(#p2ff89197f6)" d="M 320.322314 369.423529 
L 320.322314 129.6 
" style="fill:none;stroke:#b0b0b0;stroke-linecap:square;stroke-width:0.8;"/>
     </g>
     <g id="line2d_6">
      <g>
       <use style="stroke:#000000;stroke-width:0.8;" x="320.322314" xlink:href="#m24c148b266" y="369.423529"/>
      </g>
     </g>
     <g id="text_3">
      <!-- 40 -->
      <defs>
       <path d="M 37.796875 64.3125 
L 12.890625 25.390625 
L 37.796875 25.390625 
z
M 35.203125 72.90625 
L 47.609375 72.90625 
L 47.609375 25.390625 
L 58.015625 25.390625 
L 58.015625 17.1875 
L 47.609375 17.1875 
L 47.609375 0 
L 37.796875 0 
L 37.796875 17.1875 
L 4.890625 17.1875 
L 4.890625 26.703125 
z
" id="DejaVuSans-52"/>
      </defs>
      <g transform="translate(313.959814 384.021967)scale(0.1 -0.1)">
       <use xlink:href="#DejaVuSans-52"/>
       <use x="63.623047" xlink:href="#DejaVuSans-48"/>
      </g>
     </g>
    </g>
    <g id="xtick_4">
     <g id="line2d_7">
      <path clip-path="url(#p2ff89197f6)" d="M 422.801653 369.423529 
L 422.801653 129.6 
" style="fill:none;stroke:#b0b0b0;stroke-linecap:square;stroke-width:0.8;"/>
     </g>
     <g id="line2d_8">
      <g>
       <use style="stroke:#000000;stroke-width:0.8;" x="422.801653" xlink:href="#m24c148b266" y="369.423529"/>
      </g>
     </g>
     <g id="text_4">
      <!-- 60 -->
      <defs>
       <path d="M 33.015625 40.375 
Q 26.375 40.375 22.484375 35.828125 
Q 18.609375 31.296875 18.609375 23.390625 
Q 18.609375 15.53125 22.484375 10.953125 
Q 26.375 6.390625 33.015625 6.390625 
Q 39.65625 6.390625 43.53125 10.953125 
Q 47.40625 15.53125 47.40625 23.390625 
Q 47.40625 31.296875 43.53125 35.828125 
Q 39.65625 40.375 33.015625 40.375 
z
M 52.59375 71.296875 
L 52.59375 62.3125 
Q 48.875 64.0625 45.09375 64.984375 
Q 41.3125 65.921875 37.59375 65.921875 
Q 27.828125 65.921875 22.671875 59.328125 
Q 17.53125 52.734375 16.796875 39.40625 
Q 19.671875 43.65625 24.015625 45.921875 
Q 28.375 48.1875 33.59375 48.1875 
Q 44.578125 48.1875 50.953125 41.515625 
Q 57.328125 34.859375 57.328125 23.390625 
Q 57.328125 12.15625 50.6875 5.359375 
Q 44.046875 -1.421875 33.015625 -1.421875 
Q 20.359375 -1.421875 13.671875 8.265625 
Q 6.984375 17.96875 6.984375 36.375 
Q 6.984375 53.65625 15.1875 63.9375 
Q 23.390625 74.21875 37.203125 74.21875 
Q 40.921875 74.21875 44.703125 73.484375 
Q 48.484375 72.75 52.59375 71.296875 
z
" id="DejaVuSans-54"/>
      </defs>
      <g transform="translate(416.439153 384.021967)scale(0.1 -0.1)">
       <use xlink:href="#DejaVuSans-54"/>
       <use x="63.623047" xlink:href="#DejaVuSans-48"/>
      </g>
     </g>
    </g>
    <g id="xtick_5">
     <g id="line2d_9">
      <path clip-path="url(#p2ff89197f6)" d="M 525.280992 369.423529 
L 525.280992 129.6 
" style="fill:none;stroke:#b0b0b0;stroke-linecap:square;stroke-width:0.8;"/>
     </g>
     <g id="line2d_10">
      <g>
       <use style="stroke:#000000;stroke-width:0.8;" x="525.280992" xlink:href="#m24c148b266" y="369.423529"/>
      </g>
     </g>
     <g id="text_5">
      <!-- 80 -->
      <defs>
       <path d="M 31.78125 34.625 
Q 24.75 34.625 20.71875 30.859375 
Q 16.703125 27.09375 16.703125 20.515625 
Q 16.703125 13.921875 20.71875 10.15625 
Q 24.75 6.390625 31.78125 6.390625 
Q 38.8125 6.390625 42.859375 10.171875 
Q 46.921875 13.96875 46.921875 20.515625 
Q 46.921875 27.09375 42.890625 30.859375 
Q 38.875 34.625 31.78125 34.625 
z
M 21.921875 38.8125 
Q 15.578125 40.375 12.03125 44.71875 
Q 8.5 49.078125 8.5 55.328125 
Q 8.5 64.0625 14.71875 69.140625 
Q 20.953125 74.21875 31.78125 74.21875 
Q 42.671875 74.21875 48.875 69.140625 
Q 55.078125 64.0625 55.078125 55.328125 
Q 55.078125 49.078125 51.53125 44.71875 
Q 48 40.375 41.703125 38.8125 
Q 48.828125 37.15625 52.796875 32.3125 
Q 56.78125 27.484375 56.78125 20.515625 
Q 56.78125 9.90625 50.3125 4.234375 
Q 43.84375 -1.421875 31.78125 -1.421875 
Q 19.734375 -1.421875 13.25 4.234375 
Q 6.78125 9.90625 6.78125 20.515625 
Q 6.78125 27.484375 10.78125 32.3125 
Q 14.796875 37.15625 21.921875 38.8125 
z
M 18.3125 54.390625 
Q 18.3125 48.734375 21.84375 45.5625 
Q 25.390625 42.390625 31.78125 42.390625 
Q 38.140625 42.390625 41.71875 45.5625 
Q 45.3125 48.734375 45.3125 54.390625 
Q 45.3125 60.0625 41.71875 63.234375 
Q 38.140625 66.40625 31.78125 66.40625 
Q 25.390625 66.40625 21.84375 63.234375 
Q 18.3125 60.0625 18.3125 54.390625 
z
" id="DejaVuSans-56"/>
      </defs>
      <g transform="translate(518.918492 384.021967)scale(0.1 -0.1)">
       <use xlink:href="#DejaVuSans-56"/>
       <use x="63.623047" xlink:href="#DejaVuSans-48"/>
      </g>
     </g>
    </g>
    <g id="xtick_6">
     <g id="line2d_11">
      <path clip-path="url(#p2ff89197f6)" d="M 627.760331 369.423529 
L 627.760331 129.6 
" style="fill:none;stroke:#b0b0b0;stroke-linecap:square;stroke-width:0.8;"/>
     </g>
     <g id="line2d_12">
      <g>
       <use style="stroke:#000000;stroke-width:0.8;" x="627.760331" xlink:href="#m24c148b266" y="369.423529"/>
      </g>
     </g>
     <g id="text_6">
      <!-- 100 -->
      <defs>
       <path d="M 12.40625 8.296875 
L 28.515625 8.296875 
L 28.515625 63.921875 
L 10.984375 60.40625 
L 10.984375 69.390625 
L 28.421875 72.90625 
L 38.28125 72.90625 
L 38.28125 8.296875 
L 54.390625 8.296875 
L 54.390625 0 
L 12.40625 0 
z
" id="DejaVuSans-49"/>
      </defs>
      <g transform="translate(618.216581 384.021967)scale(0.1 -0.1)">
       <use xlink:href="#DejaVuSans-49"/>
       <use x="63.623047" xlink:href="#DejaVuSans-48"/>
       <use x="127.246094" xlink:href="#DejaVuSans-48"/>
      </g>
     </g>
    </g>
    <g id="text_7">
     <!-- Round -->
     <defs>
      <path d="M 44.390625 34.1875 
Q 47.5625 33.109375 50.5625 29.59375 
Q 53.5625 26.078125 56.59375 19.921875 
L 66.609375 0 
L 56 0 
L 46.6875 18.703125 
Q 43.0625 26.03125 39.671875 28.421875 
Q 36.28125 30.8125 30.421875 30.8125 
L 19.671875 30.8125 
L 19.671875 0 
L 9.8125 0 
L 9.8125 72.90625 
L 32.078125 72.90625 
Q 44.578125 72.90625 50.734375 67.671875 
Q 56.890625 62.453125 56.890625 51.90625 
Q 56.890625 45.015625 53.6875 40.46875 
Q 50.484375 35.9375 44.390625 34.1875 
z
M 19.671875 64.796875 
L 19.671875 38.921875 
L 32.078125 38.921875 
Q 39.203125 38.921875 42.84375 42.21875 
Q 46.484375 45.515625 46.484375 51.90625 
Q 46.484375 58.296875 42.84375 61.546875 
Q 39.203125 64.796875 32.078125 64.796875 
z
" id="DejaVuSans-82"/>
      <path d="M 30.609375 48.390625 
Q 23.390625 48.390625 19.1875 42.75 
Q 14.984375 37.109375 14.984375 27.296875 
Q 14.984375 17.484375 19.15625 11.84375 
Q 23.34375 6.203125 30.609375 6.203125 
Q 37.796875 6.203125 41.984375 11.859375 
Q 46.1875 17.53125 46.1875 27.296875 
Q 46.1875 37.015625 41.984375 42.703125 
Q 37.796875 48.390625 30.609375 48.390625 
z
M 30.609375 56 
Q 42.328125 56 49.015625 48.375 
Q 55.71875 40.765625 55.71875 27.296875 
Q 55.71875 13.875 49.015625 6.21875 
Q 42.328125 -1.421875 30.609375 -1.421875 
Q 18.84375 -1.421875 12.171875 6.21875 
Q 5.515625 13.875 5.515625 27.296875 
Q 5.515625 40.765625 12.171875 48.375 
Q 18.84375 56 30.609375 56 
z
" id="DejaVuSans-111"/>
      <path d="M 8.5 21.578125 
L 8.5 54.6875 
L 17.484375 54.6875 
L 17.484375 21.921875 
Q 17.484375 14.15625 20.5 10.265625 
Q 23.53125 6.390625 29.59375 6.390625 
Q 36.859375 6.390625 41.078125 11.03125 
Q 45.3125 15.671875 45.3125 23.6875 
L 45.3125 54.6875 
L 54.296875 54.6875 
L 54.296875 0 
L 45.3125 0 
L 45.3125 8.40625 
Q 42.046875 3.421875 37.71875 1 
Q 33.40625 -1.421875 27.6875 -1.421875 
Q 18.265625 -1.421875 13.375 4.4375 
Q 8.5 10.296875 8.5 21.578125 
z
M 31.109375 56 
z
" id="DejaVuSans-117"/>
      <path d="M 54.890625 33.015625 
L 54.890625 0 
L 45.90625 0 
L 45.90625 32.71875 
Q 45.90625 40.484375 42.875 44.328125 
Q 39.84375 48.1875 33.796875 48.1875 
Q 26.515625 48.1875 22.3125 43.546875 
Q 18.109375 38.921875 18.109375 30.90625 
L 18.109375 0 
L 9.078125 0 
L 9.078125 54.6875 
L 18.109375 54.6875 
L 18.109375 46.1875 
Q 21.34375 51.125 25.703125 53.5625 
Q 30.078125 56 35.796875 56 
Q 45.21875 56 50.046875 50.171875 
Q 54.890625 44.34375 54.890625 33.015625 
z
" id="DejaVuSans-110"/>
      <path d="M 45.40625 46.390625 
L 45.40625 75.984375 
L 54.390625 75.984375 
L 54.390625 0 
L 45.40625 0 
L 45.40625 8.203125 
Q 42.578125 3.328125 38.25 0.953125 
Q 33.9375 -1.421875 27.875 -1.421875 
Q 17.96875 -1.421875 11.734375 6.484375 
Q 5.515625 14.40625 5.515625 27.296875 
Q 5.515625 40.1875 11.734375 48.09375 
Q 17.96875 56 27.875 56 
Q 33.9375 56 38.25 53.625 
Q 42.578125 51.265625 45.40625 46.390625 
z
M 14.796875 27.296875 
Q 14.796875 17.390625 18.875 11.75 
Q 22.953125 6.109375 30.078125 6.109375 
Q 37.203125 6.109375 41.296875 11.75 
Q 45.40625 17.390625 45.40625 27.296875 
Q 45.40625 37.203125 41.296875 42.84375 
Q 37.203125 48.484375 30.078125 48.484375 
Q 22.953125 48.484375 18.875 42.84375 
Q 14.796875 37.203125 14.796875 27.296875 
z
" id="DejaVuSans-100"/>
     </defs>
     <g transform="translate(352.957812 397.700092)scale(0.1 -0.1)">
      <use xlink:href="#DejaVuSans-82"/>
      <use x="69.419922" xlink:href="#DejaVuSans-111"/>
      <use x="130.601562" xlink:href="#DejaVuSans-117"/>
      <use x="193.980469" xlink:href="#DejaVuSans-110"/>
      <use x="257.359375" xlink:href="#DejaVuSans-100"/>
     </g>
    </g>
   </g>
   <g id="matplotlib.axis_2">
    <g id="ytick_1">
     <g id="line2d_13">
      <path clip-path="url(#p2ff89197f6)" d="M 90 361.182019 
L 648 361.182019 
" style="fill:none;stroke:#b0b0b0;stroke-linecap:square;stroke-width:0.8;"/>
     </g>
     <g id="line2d_14">
      <defs>
       <path d="M 0 0 
L -3.5 0 
" id="mbff404799d" style="stroke:#000000;stroke-width:0.8;"/>
      </defs>
      <g>
       <use style="stroke:#000000;stroke-width:0.8;" x="90" xlink:href="#mbff404799d" y="361.182019"/>
      </g>
     </g>
     <g id="text_8">
      <!-- 0.0 -->
      <defs>
       <path d="M 10.6875 12.40625 
L 21 12.40625 
L 21 0 
L 10.6875 0 
z
" id="DejaVuSans-46"/>
      </defs>
      <g transform="translate(67.096875 364.981238)scale(0.1 -0.1)">
       <use xlink:href="#DejaVuSans-48"/>
       <use x="63.623047" xlink:href="#DejaVuSans-46"/>
       <use x="95.410156" xlink:href="#DejaVuSans-48"/>
      </g>
     </g>
    </g>
    <g id="ytick_2">
     <g id="line2d_15">
      <path clip-path="url(#p2ff89197f6)" d="M 90 312.364849 
L 648 312.364849 
" style="fill:none;stroke:#b0b0b0;stroke-linecap:square;stroke-width:0.8;"/>
     </g>
     <g id="line2d_16">
      <g>
       <use style="stroke:#000000;stroke-width:0.8;" x="90" xlink:href="#mbff404799d" y="312.364849"/>
      </g>
     </g>
     <g id="text_9">
      <!-- 0.1 -->
      <g transform="translate(67.096875 316.164067)scale(0.1 -0.1)">
       <use xlink:href="#DejaVuSans-48"/>
       <use x="63.623047" xlink:href="#DejaVuSans-46"/>
       <use x="95.410156" xlink:href="#DejaVuSans-49"/>
      </g>
     </g>
    </g>
    <g id="ytick_3">
     <g id="line2d_17">
      <path clip-path="url(#p2ff89197f6)" d="M 90 263.547678 
L 648 263.547678 
" style="fill:none;stroke:#b0b0b0;stroke-linecap:square;stroke-width:0.8;"/>
     </g>
     <g id="line2d_18">
      <g>
       <use style="stroke:#000000;stroke-width:0.8;" x="90" xlink:href="#mbff404799d" y="263.547678"/>
      </g>
     </g>
     <g id="text_10">
      <!-- 0.2 -->
      <g transform="translate(67.096875 267.346896)scale(0.1 -0.1)">
       <use xlink:href="#DejaVuSans-48"/>
       <use x="63.623047" xlink:href="#DejaVuSans-46"/>
       <use x="95.410156" xlink:href="#DejaVuSans-50"/>
      </g>
     </g>
    </g>
    <g id="ytick_4">
     <g id="line2d_19">
      <path clip-path="url(#p2ff89197f6)" d="M 90 214.730507 
L 648 214.730507 
" style="fill:none;stroke:#b0b0b0;stroke-linecap:square;stroke-width:0.8;"/>
     </g>
     <g id="line2d_20">
      <g>
       <use style="stroke:#000000;stroke-width:0.8;" x="90" xlink:href="#mbff404799d" y="214.730507"/>
      </g>
     </g>
     <g id="text_11">
      <!-- 0.3 -->
      <defs>
       <path d="M 40.578125 39.3125 
Q 47.65625 37.796875 51.625 33 
Q 55.609375 28.21875 55.609375 21.1875 
Q 55.609375 10.40625 48.1875 4.484375 
Q 40.765625 -1.421875 27.09375 -1.421875 
Q 22.515625 -1.421875 17.65625 -0.515625 
Q 12.796875 0.390625 7.625 2.203125 
L 7.625 11.71875 
Q 11.71875 9.328125 16.59375 8.109375 
Q 21.484375 6.890625 26.8125 6.890625 
Q 36.078125 6.890625 40.9375 10.546875 
Q 45.796875 14.203125 45.796875 21.1875 
Q 45.796875 27.640625 41.28125 31.265625 
Q 36.765625 34.90625 28.71875 34.90625 
L 20.21875 34.90625 
L 20.21875 43.015625 
L 29.109375 43.015625 
Q 36.375 43.015625 40.234375 45.921875 
Q 44.09375 48.828125 44.09375 54.296875 
Q 44.09375 59.90625 40.109375 62.90625 
Q 36.140625 65.921875 28.71875 65.921875 
Q 24.65625 65.921875 20.015625 65.03125 
Q 15.375 64.15625 9.8125 62.3125 
L 9.8125 71.09375 
Q 15.4375 72.65625 20.34375 73.4375 
Q 25.25 74.21875 29.59375 74.21875 
Q 40.828125 74.21875 47.359375 69.109375 
Q 53.90625 64.015625 53.90625 55.328125 
Q 53.90625 49.265625 50.4375 45.09375 
Q 46.96875 40.921875 40.578125 39.3125 
z
" id="DejaVuSans-51"/>
      </defs>
      <g transform="translate(67.096875 218.529726)scale(0.1 -0.1)">
       <use xlink:href="#DejaVuSans-48"/>
       <use x="63.623047" xlink:href="#DejaVuSans-46"/>
       <use x="95.410156" xlink:href="#DejaVuSans-51"/>
      </g>
     </g>
    </g>
    <g id="ytick_5">
     <g id="line2d_21">
      <path clip-path="url(#p2ff89197f6)" d="M 90 165.913336 
L 648 165.913336 
" style="fill:none;stroke:#b0b0b0;stroke-linecap:square;stroke-width:0.8;"/>
     </g>
     <g id="line2d_22">
      <g>
       <use style="stroke:#000000;stroke-width:0.8;" x="90" xlink:href="#mbff404799d" y="165.913336"/>
      </g>
     </g>
     <g id="text_12">
      <!-- 0.4 -->
      <g transform="translate(67.096875 169.712555)scale(0.1 -0.1)">
       <use xlink:href="#DejaVuSans-48"/>
       <use x="63.623047" xlink:href="#DejaVuSans-46"/>
       <use x="95.410156" xlink:href="#DejaVuSans-52"/>
      </g>
     </g>
    </g>
    <g id="text_13">
     <!-- RMSE -->
     <defs>
      <path d="M 9.8125 72.90625 
L 24.515625 72.90625 
L 43.109375 23.296875 
L 61.8125 72.90625 
L 76.515625 72.90625 
L 76.515625 0 
L 66.890625 0 
L 66.890625 64.015625 
L 48.09375 14.015625 
L 38.1875 14.015625 
L 19.390625 64.015625 
L 19.390625 0 
L 9.8125 0 
z
" id="DejaVuSans-77"/>
      <path d="M 53.515625 70.515625 
L 53.515625 60.890625 
Q 47.90625 63.578125 42.921875 64.890625 
Q 37.9375 66.21875 33.296875 66.21875 
Q 25.25 66.21875 20.875 63.09375 
Q 16.5 59.96875 16.5 54.203125 
Q 16.5 49.359375 19.40625 46.890625 
Q 22.3125 44.4375 30.421875 42.921875 
L 36.375 41.703125 
Q 47.40625 39.59375 52.65625 34.296875 
Q 57.90625 29 57.90625 20.125 
Q 57.90625 9.515625 50.796875 4.046875 
Q 43.703125 -1.421875 29.984375 -1.421875 
Q 24.8125 -1.421875 18.96875 -0.25 
Q 13.140625 0.921875 6.890625 3.21875 
L 6.890625 13.375 
Q 12.890625 10.015625 18.65625 8.296875 
Q 24.421875 6.59375 29.984375 6.59375 
Q 38.421875 6.59375 43.015625 9.90625 
Q 47.609375 13.234375 47.609375 19.390625 
Q 47.609375 24.75 44.3125 27.78125 
Q 41.015625 30.8125 33.5 32.328125 
L 27.484375 33.5 
Q 16.453125 35.6875 11.515625 40.375 
Q 6.59375 45.0625 6.59375 53.421875 
Q 6.59375 63.09375 13.40625 68.65625 
Q 20.21875 74.21875 32.171875 74.21875 
Q 37.3125 74.21875 42.625 73.28125 
Q 47.953125 72.359375 53.515625 70.515625 
z
" id="DejaVuSans-83"/>
      <path d="M 9.8125 72.90625 
L 55.90625 72.90625 
L 55.90625 64.59375 
L 19.671875 64.59375 
L 19.671875 43.015625 
L 54.390625 43.015625 
L 54.390625 34.71875 
L 19.671875 34.71875 
L 19.671875 8.296875 
L 56.78125 8.296875 
L 56.78125 0 
L 9.8125 0 
z
" id="DejaVuSans-69"/>
     </defs>
     <g transform="translate(61.017187 263.63364)rotate(-90)scale(0.1 -0.1)">
      <use xlink:href="#DejaVuSans-82"/>
      <use x="69.482422" xlink:href="#DejaVuSans-77"/>
      <use x="155.761719" xlink:href="#DejaVuSans-83"/>
      <use x="219.238281" xlink:href="#DejaVuSans-69"/>
     </g>
    </g>
   </g>
   <g id="line2d_23">
    <path clip-path="url(#p2ff89197f6)" d="M 115.363636 140.50107 
L 120.487603 161.315247 
L 125.61157 179.892621 
L 130.735537 196.414792 
L 135.859504 211.44023 
L 140.983471 224.852747 
L 146.107438 236.914494 
L 151.231405 247.630839 
L 156.355372 257.351802 
L 161.479339 266.160373 
L 166.603306 274.302589 
L 171.727273 281.157496 
L 176.85124 287.811276 
L 181.975207 293.72987 
L 187.099174 299.228148 
L 192.22314 304.270962 
L 197.347107 308.742126 
L 202.471074 312.672885 
L 207.595041 316.288285 
L 212.719008 319.539996 
L 217.842975 322.335756 
L 222.966942 324.972859 
L 228.090909 327.237 
L 233.214876 329.34102 
L 238.338843 331.194119 
L 243.46281 332.982781 
L 248.586777 334.587889 
L 253.710744 335.884961 
L 258.834711 337.229874 
L 263.958678 338.508396 
L 269.082645 339.62875 
L 274.206612 340.565552 
L 279.330579 341.410089 
L 284.454545 342.127213 
L 289.578512 342.641258 
L 294.702479 343.228528 
L 299.826446 343.759171 
L 304.950413 344.185833 
L 310.07438 344.624211 
L 315.198347 344.801906 
L 320.322314 345.088463 
L 325.446281 345.405774 
L 330.570248 345.501944 
L 335.694215 345.794847 
L 340.818182 345.822185 
L 345.942149 346.163417 
L 351.066116 346.44558 
L 356.190083 346.620834 
L 361.31405 346.778025 
L 366.438017 346.946444 
L 371.561983 347.162704 
L 376.68595 347.346257 
L 381.809917 347.533715 
L 386.933884 347.54836 
L 392.057851 347.683583 
L 397.181818 347.858349 
L 402.305785 348.023839 
L 407.429752 348.209833 
L 412.553719 348.205439 
L 417.677686 348.326017 
L 422.801653 348.377764 
L 427.92562 348.441226 
L 433.049587 348.628684 
L 438.173554 348.658951 
L 443.297521 348.753656 
L 448.421488 348.908406 
L 453.545455 349.021174 
L 458.669421 349.066086 
L 463.793388 349.192522 
L 468.917355 349.362894 
L 474.041322 349.522526 
L 479.165289 349.645057 
L 484.289256 349.758313 
L 489.413223 349.863758 
L 494.53719 349.896466 
L 499.661157 349.968227 
L 504.785124 349.913064 
L 509.909091 349.936496 
L 515.033058 350.019973 
L 520.157025 350.1303 
L 525.280992 350.25039 
L 530.404959 350.349001 
L 535.528926 350.501799 
L 540.652893 350.6297 
L 545.77686 350.618472 
L 550.900826 350.690233 
L 556.024793 350.775663 
L 561.14876 350.906005 
L 566.272727 351.013403 
L 571.396694 351.057826 
L 576.520661 351.166689 
L 581.644628 351.284826 
L 586.768595 351.346336 
L 591.892562 351.36391 
L 597.016529 351.360493 
L 602.140496 351.515731 
L 607.264463 351.601161 
L 612.38843 351.668529 
L 617.512397 351.770069 
L 622.636364 351.827185 
" style="fill:none;stroke:#ff0000;stroke-linecap:square;stroke-width:1.5;"/>
   </g>
   <g id="line2d_24">
    <path clip-path="url(#p2ff89197f6)" d="M 115.363636 140.638734 
L 120.487603 161.651597 
L 125.61157 180.421799 
L 130.735537 197.154861 
L 135.859504 212.340906 
L 140.983471 225.976518 
L 146.107438 238.210101 
L 151.231405 249.191524 
L 156.355372 259.167801 
L 161.479339 268.178963 
L 166.603306 276.515471 
L 171.727273 283.684272 
L 176.85124 290.506472 
L 181.975207 296.589092 
L 187.099174 302.182563 
L 192.22314 307.354742 
L 197.347107 311.960642 
L 202.471074 316.091063 
L 207.595041 319.890504 
L 212.719008 323.308194 
L 217.842975 326.27042 
L 222.966942 329.099375 
L 228.090909 331.577822 
L 233.214876 333.889315 
L 238.338843 335.955746 
L 243.46281 337.897205 
L 248.586777 339.644372 
L 253.710744 341.130855 
L 258.834711 342.610991 
L 263.958678 343.918803 
L 269.082645 345.154366 
L 274.206612 346.217116 
L 279.330579 347.217868 
L 284.454545 348.075097 
L 289.578512 348.815654 
L 294.702479 349.522526 
L 299.826446 350.15959 
L 304.950413 350.777128 
L 310.07438 351.33462 
L 315.198347 351.694402 
L 320.322314 352.092262 
L 325.446281 352.492075 
L 330.570248 352.738113 
L 335.694215 353.073975 
L 340.818182 353.291212 
L 345.942149 353.597784 
L 351.066116 353.847728 
L 356.190083 354.092302 
L 361.31405 354.311979 
L 366.438017 354.468194 
L 371.561983 354.669321 
L 376.68595 354.860196 
L 381.809917 355.055953 
L 386.933884 355.18483 
L 392.057851 355.34495 
L 397.181818 355.545589 
L 402.305785 355.734023 
L 407.429752 355.887797 
L 412.553719 355.945401 
L 417.677686 356.103081 
L 422.801653 356.154339 
L 427.92562 356.230494 
L 433.049587 356.38378 
L 438.173554 356.435038 
L 443.297521 356.535113 
L 448.421488 356.60541 
L 453.545455 356.720618 
L 458.669421 356.8163 
L 463.793388 356.909541 
L 468.917355 357.018891 
L 474.041322 357.138005 
L 479.165289 357.224411 
L 484.289256 357.319605 
L 489.413223 357.378674 
L 494.53719 357.410893 
L 499.661157 357.470938 
L 504.785124 357.458734 
L 509.909091 357.525125 
L 515.033058 357.59591 
L 520.157025 357.683293 
L 525.280992 357.759448 
L 530.404959 357.833161 
L 535.528926 357.891254 
L 540.652893 357.941047 
L 545.77686 357.963015 
L 550.900826 357.984006 
L 556.024793 358.034288 
L 561.14876 358.077247 
L 566.272727 358.140221 
L 571.396694 358.156331 
L 576.520661 358.190503 
L 581.644628 358.238344 
L 586.768595 358.260312 
L 591.892562 358.302783 
L 597.016529 358.320357 
L 602.140496 358.393583 
L 607.264463 358.425314 
L 612.38843 358.470226 
L 617.512397 358.507327 
L 622.636364 358.52246 
" style="fill:none;stroke:#00bfbf;stroke-linecap:square;stroke-width:1.5;"/>
   </g>
   <g id="patch_3">
    <path d="M 90 369.423529 
L 90 129.6 
" style="fill:none;stroke:#000000;stroke-linecap:square;stroke-linejoin:miter;stroke-width:0.8;"/>
   </g>
   <g id="patch_4">
    <path d="M 648 369.423529 
L 648 129.6 
" style="fill:none;stroke:#000000;stroke-linecap:square;stroke-linejoin:miter;stroke-width:0.8;"/>
   </g>
   <g id="patch_5">
    <path d="M 90 369.423529 
L 648 369.423529 
" style="fill:none;stroke:#000000;stroke-linecap:square;stroke-linejoin:miter;stroke-width:0.8;"/>
   </g>
   <g id="patch_6">
    <path d="M 90 129.6 
L 648 129.6 
" style="fill:none;stroke:#000000;stroke-linecap:square;stroke-linejoin:miter;stroke-width:0.8;"/>
   </g>
   <g id="legend_1">
    <g id="patch_7">
     <path d="M 583.559375 166.95625 
L 641 166.95625 
Q 643 166.95625 643 164.95625 
L 643 136.6 
Q 643 134.6 641 134.6 
L 583.559375 134.6 
Q 581.559375 134.6 581.559375 136.6 
L 581.559375 164.95625 
Q 581.559375 166.95625 583.559375 166.95625 
z
" style="fill:#ffffff;opacity:0.8;stroke:#cccccc;stroke-linejoin:miter;"/>
    </g>
    <g id="line2d_25">
     <path d="M 585.559375 142.698437 
L 605.559375 142.698437 
" style="fill:none;stroke:#ff0000;stroke-linecap:square;stroke-width:1.5;"/>
    </g>
    <g id="line2d_26"/>
    <g id="text_14">
     <!-- Eval -->
     <defs>
      <path d="M 2.984375 54.6875 
L 12.5 54.6875 
L 29.59375 8.796875 
L 46.6875 54.6875 
L 56.203125 54.6875 
L 35.6875 0 
L 23.484375 0 
z
" id="DejaVuSans-118"/>
      <path d="M 34.28125 27.484375 
Q 23.390625 27.484375 19.1875 25 
Q 14.984375 22.515625 14.984375 16.5 
Q 14.984375 11.71875 18.140625 8.90625 
Q 21.296875 6.109375 26.703125 6.109375 
Q 34.1875 6.109375 38.703125 11.40625 
Q 43.21875 16.703125 43.21875 25.484375 
L 43.21875 27.484375 
z
M 52.203125 31.203125 
L 52.203125 0 
L 43.21875 0 
L 43.21875 8.296875 
Q 40.140625 3.328125 35.546875 0.953125 
Q 30.953125 -1.421875 24.3125 -1.421875 
Q 15.921875 -1.421875 10.953125 3.296875 
Q 6 8.015625 6 15.921875 
Q 6 25.140625 12.171875 29.828125 
Q 18.359375 34.515625 30.609375 34.515625 
L 43.21875 34.515625 
L 43.21875 35.40625 
Q 43.21875 41.609375 39.140625 45 
Q 35.0625 48.390625 27.6875 48.390625 
Q 23 48.390625 18.546875 47.265625 
Q 14.109375 46.140625 10.015625 43.890625 
L 10.015625 52.203125 
Q 14.9375 54.109375 19.578125 55.046875 
Q 24.21875 56 28.609375 56 
Q 40.484375 56 46.34375 49.84375 
Q 52.203125 43.703125 52.203125 31.203125 
z
" id="DejaVuSans-97"/>
      <path d="M 9.421875 75.984375 
L 18.40625 75.984375 
L 18.40625 0 
L 9.421875 0 
z
" id="DejaVuSans-108"/>
     </defs>
     <g transform="translate(613.559375 146.198437)scale(0.1 -0.1)">
      <use xlink:href="#DejaVuSans-69"/>
      <use x="63.183594" xlink:href="#DejaVuSans-118"/>
      <use x="122.363281" xlink:href="#DejaVuSans-97"/>
      <use x="183.642578" xlink:href="#DejaVuSans-108"/>
     </g>
    </g>
    <g id="line2d_27">
     <path d="M 585.559375 157.376562 
L 605.559375 157.376562 
" style="fill:none;stroke:#00bfbf;stroke-linecap:square;stroke-width:1.5;"/>
    </g>
    <g id="line2d_28"/>
    <g id="text_15">
     <!-- Train -->
     <defs>
      <path d="M -0.296875 72.90625 
L 61.375 72.90625 
L 61.375 64.59375 
L 35.5 64.59375 
L 35.5 0 
L 25.59375 0 
L 25.59375 64.59375 
L -0.296875 64.59375 
z
" id="DejaVuSans-84"/>
      <path d="M 41.109375 46.296875 
Q 39.59375 47.171875 37.8125 47.578125 
Q 36.03125 48 33.890625 48 
Q 26.265625 48 22.1875 43.046875 
Q 18.109375 38.09375 18.109375 28.8125 
L 18.109375 0 
L 9.078125 0 
L 9.078125 54.6875 
L 18.109375 54.6875 
L 18.109375 46.1875 
Q 20.953125 51.171875 25.484375 53.578125 
Q 30.03125 56 36.53125 56 
Q 37.453125 56 38.578125 55.875 
Q 39.703125 55.765625 41.0625 55.515625 
z
" id="DejaVuSans-114"/>
      <path d="M 9.421875 54.6875 
L 18.40625 54.6875 
L 18.40625 0 
L 9.421875 0 
z
M 9.421875 75.984375 
L 18.40625 75.984375 
L 18.40625 64.59375 
L 9.421875 64.59375 
z
" id="DejaVuSans-105"/>
     </defs>
     <g transform="translate(613.559375 160.876562)scale(0.1 -0.1)">
      <use xlink:href="#DejaVuSans-84"/>
      <use x="60.865234" xlink:href="#DejaVuSans-114"/>
      <use x="101.978516" xlink:href="#DejaVuSans-97"/>
      <use x="163.257812" xlink:href="#DejaVuSans-105"/>
      <use x="191.041016" xlink:href="#DejaVuSans-110"/>
     </g>
    </g>
   </g>
  </g>
  <g id="axes_2">
   <g id="patch_8">
    <path d="M 90 657.211765 
L 648 657.211765 
L 648 417.388235 
L 90 417.388235 
z
" style="fill:#ffffff;"/>
   </g>
   <g id="matplotlib.axis_3">
    <g id="xtick_7">
     <g id="line2d_29">
      <path clip-path="url(#paf963b4cae)" d="M 115.363636 657.211765 
L 115.363636 417.388235 
" style="fill:none;stroke:#b0b0b0;stroke-linecap:square;stroke-width:0.8;"/>
     </g>
     <g id="line2d_30">
      <g>
       <use style="stroke:#000000;stroke-width:0.8;" x="115.363636" xlink:href="#m24c148b266" y="657.211765"/>
      </g>
     </g>
     <g id="text_16">
      <!-- 0 -->
      <g transform="translate(112.182386 671.810202)scale(0.1 -0.1)">
       <use xlink:href="#DejaVuSans-48"/>
      </g>
     </g>
    </g>
    <g id="xtick_8">
     <g id="line2d_31">
      <path clip-path="url(#paf963b4cae)" d="M 217.842975 657.211765 
L 217.842975 417.388235 
" style="fill:none;stroke:#b0b0b0;stroke-linecap:square;stroke-width:0.8;"/>
     </g>
     <g id="line2d_32">
      <g>
       <use style="stroke:#000000;stroke-width:0.8;" x="217.842975" xlink:href="#m24c148b266" y="657.211765"/>
      </g>
     </g>
     <g id="text_17">
      <!-- 20 -->
      <g transform="translate(211.480475 671.810202)scale(0.1 -0.1)">
       <use xlink:href="#DejaVuSans-50"/>
       <use x="63.623047" xlink:href="#DejaVuSans-48"/>
      </g>
     </g>
    </g>
    <g id="xtick_9">
     <g id="line2d_33">
      <path clip-path="url(#paf963b4cae)" d="M 320.322314 657.211765 
L 320.322314 417.388235 
" style="fill:none;stroke:#b0b0b0;stroke-linecap:square;stroke-width:0.8;"/>
     </g>
     <g id="line2d_34">
      <g>
       <use style="stroke:#000000;stroke-width:0.8;" x="320.322314" xlink:href="#m24c148b266" y="657.211765"/>
      </g>
     </g>
     <g id="text_18">
      <!-- 40 -->
      <g transform="translate(313.959814 671.810202)scale(0.1 -0.1)">
       <use xlink:href="#DejaVuSans-52"/>
       <use x="63.623047" xlink:href="#DejaVuSans-48"/>
      </g>
     </g>
    </g>
    <g id="xtick_10">
     <g id="line2d_35">
      <path clip-path="url(#paf963b4cae)" d="M 422.801653 657.211765 
L 422.801653 417.388235 
" style="fill:none;stroke:#b0b0b0;stroke-linecap:square;stroke-width:0.8;"/>
     </g>
     <g id="line2d_36">
      <g>
       <use style="stroke:#000000;stroke-width:0.8;" x="422.801653" xlink:href="#m24c148b266" y="657.211765"/>
      </g>
     </g>
     <g id="text_19">
      <!-- 60 -->
      <g transform="translate(416.439153 671.810202)scale(0.1 -0.1)">
       <use xlink:href="#DejaVuSans-54"/>
       <use x="63.623047" xlink:href="#DejaVuSans-48"/>
      </g>
     </g>
    </g>
    <g id="xtick_11">
     <g id="line2d_37">
      <path clip-path="url(#paf963b4cae)" d="M 525.280992 657.211765 
L 525.280992 417.388235 
" style="fill:none;stroke:#b0b0b0;stroke-linecap:square;stroke-width:0.8;"/>
     </g>
     <g id="line2d_38">
      <g>
       <use style="stroke:#000000;stroke-width:0.8;" x="525.280992" xlink:href="#m24c148b266" y="657.211765"/>
      </g>
     </g>
     <g id="text_20">
      <!-- 80 -->
      <g transform="translate(518.918492 671.810202)scale(0.1 -0.1)">
       <use xlink:href="#DejaVuSans-56"/>
       <use x="63.623047" xlink:href="#DejaVuSans-48"/>
      </g>
     </g>
    </g>
    <g id="xtick_12">
     <g id="line2d_39">
      <path clip-path="url(#paf963b4cae)" d="M 627.760331 657.211765 
L 627.760331 417.388235 
" style="fill:none;stroke:#b0b0b0;stroke-linecap:square;stroke-width:0.8;"/>
     </g>
     <g id="line2d_40">
      <g>
       <use style="stroke:#000000;stroke-width:0.8;" x="627.760331" xlink:href="#m24c148b266" y="657.211765"/>
      </g>
     </g>
     <g id="text_21">
      <!-- 100 -->
      <g transform="translate(618.216581 671.810202)scale(0.1 -0.1)">
       <use xlink:href="#DejaVuSans-49"/>
       <use x="63.623047" xlink:href="#DejaVuSans-48"/>
       <use x="127.246094" xlink:href="#DejaVuSans-48"/>
      </g>
     </g>
    </g>
    <g id="text_22">
     <!-- Round -->
     <g transform="translate(352.957812 685.488327)scale(0.1 -0.1)">
      <use xlink:href="#DejaVuSans-82"/>
      <use x="69.419922" xlink:href="#DejaVuSans-111"/>
      <use x="130.601562" xlink:href="#DejaVuSans-117"/>
      <use x="193.980469" xlink:href="#DejaVuSans-110"/>
      <use x="257.359375" xlink:href="#DejaVuSans-100"/>
     </g>
    </g>
   </g>
   <g id="matplotlib.axis_4">
    <g id="ytick_6">
     <g id="line2d_41">
      <path clip-path="url(#paf963b4cae)" d="M 90 646.783229 
L 648 646.783229 
" style="fill:none;stroke:#b0b0b0;stroke-linecap:square;stroke-width:0.8;"/>
     </g>
     <g id="line2d_42">
      <g>
       <use style="stroke:#000000;stroke-width:0.8;" x="90" xlink:href="#mbff404799d" y="646.783229"/>
      </g>
     </g>
     <g id="text_23">
      <!-- 0.0 -->
      <g transform="translate(67.096875 650.582447)scale(0.1 -0.1)">
       <use xlink:href="#DejaVuSans-48"/>
       <use x="63.623047" xlink:href="#DejaVuSans-46"/>
       <use x="95.410156" xlink:href="#DejaVuSans-48"/>
      </g>
     </g>
    </g>
    <g id="ytick_7">
     <g id="line2d_43">
      <path clip-path="url(#paf963b4cae)" d="M 90 610.462433 
L 648 610.462433 
" style="fill:none;stroke:#b0b0b0;stroke-linecap:square;stroke-width:0.8;"/>
     </g>
     <g id="line2d_44">
      <g>
       <use style="stroke:#000000;stroke-width:0.8;" x="90" xlink:href="#mbff404799d" y="610.462433"/>
      </g>
     </g>
     <g id="text_24">
      <!-- 0.1 -->
      <g transform="translate(67.096875 614.261651)scale(0.1 -0.1)">
       <use xlink:href="#DejaVuSans-48"/>
       <use x="63.623047" xlink:href="#DejaVuSans-46"/>
       <use x="95.410156" xlink:href="#DejaVuSans-49"/>
      </g>
     </g>
    </g>
    <g id="ytick_8">
     <g id="line2d_45">
      <path clip-path="url(#paf963b4cae)" d="M 90 574.141636 
L 648 574.141636 
" style="fill:none;stroke:#b0b0b0;stroke-linecap:square;stroke-width:0.8;"/>
     </g>
     <g id="line2d_46">
      <g>
       <use style="stroke:#000000;stroke-width:0.8;" x="90" xlink:href="#mbff404799d" y="574.141636"/>
      </g>
     </g>
     <g id="text_25">
      <!-- 0.2 -->
      <g transform="translate(67.096875 577.940855)scale(0.1 -0.1)">
       <use xlink:href="#DejaVuSans-48"/>
       <use x="63.623047" xlink:href="#DejaVuSans-46"/>
       <use x="95.410156" xlink:href="#DejaVuSans-50"/>
      </g>
     </g>
    </g>
    <g id="ytick_9">
     <g id="line2d_47">
      <path clip-path="url(#paf963b4cae)" d="M 90 537.82084 
L 648 537.82084 
" style="fill:none;stroke:#b0b0b0;stroke-linecap:square;stroke-width:0.8;"/>
     </g>
     <g id="line2d_48">
      <g>
       <use style="stroke:#000000;stroke-width:0.8;" x="90" xlink:href="#mbff404799d" y="537.82084"/>
      </g>
     </g>
     <g id="text_26">
      <!-- 0.3 -->
      <g transform="translate(67.096875 541.620059)scale(0.1 -0.1)">
       <use xlink:href="#DejaVuSans-48"/>
       <use x="63.623047" xlink:href="#DejaVuSans-46"/>
       <use x="95.410156" xlink:href="#DejaVuSans-51"/>
      </g>
     </g>
    </g>
    <g id="ytick_10">
     <g id="line2d_49">
      <path clip-path="url(#paf963b4cae)" d="M 90 501.500044 
L 648 501.500044 
" style="fill:none;stroke:#b0b0b0;stroke-linecap:square;stroke-width:0.8;"/>
     </g>
     <g id="line2d_50">
      <g>
       <use style="stroke:#000000;stroke-width:0.8;" x="90" xlink:href="#mbff404799d" y="501.500044"/>
      </g>
     </g>
     <g id="text_27">
      <!-- 0.4 -->
      <g transform="translate(67.096875 505.299263)scale(0.1 -0.1)">
       <use xlink:href="#DejaVuSans-48"/>
       <use x="63.623047" xlink:href="#DejaVuSans-46"/>
       <use x="95.410156" xlink:href="#DejaVuSans-52"/>
      </g>
     </g>
    </g>
    <g id="ytick_11">
     <g id="line2d_51">
      <path clip-path="url(#paf963b4cae)" d="M 90 465.179248 
L 648 465.179248 
" style="fill:none;stroke:#b0b0b0;stroke-linecap:square;stroke-width:0.8;"/>
     </g>
     <g id="line2d_52">
      <g>
       <use style="stroke:#000000;stroke-width:0.8;" x="90" xlink:href="#mbff404799d" y="465.179248"/>
      </g>
     </g>
     <g id="text_28">
      <!-- 0.5 -->
      <defs>
       <path d="M 10.796875 72.90625 
L 49.515625 72.90625 
L 49.515625 64.59375 
L 19.828125 64.59375 
L 19.828125 46.734375 
Q 21.96875 47.46875 24.109375 47.828125 
Q 26.265625 48.1875 28.421875 48.1875 
Q 40.625 48.1875 47.75 41.5 
Q 54.890625 34.8125 54.890625 23.390625 
Q 54.890625 11.625 47.5625 5.09375 
Q 40.234375 -1.421875 26.90625 -1.421875 
Q 22.3125 -1.421875 17.546875 -0.640625 
Q 12.796875 0.140625 7.71875 1.703125 
L 7.71875 11.625 
Q 12.109375 9.234375 16.796875 8.0625 
Q 21.484375 6.890625 26.703125 6.890625 
Q 35.15625 6.890625 40.078125 11.328125 
Q 45.015625 15.765625 45.015625 23.390625 
Q 45.015625 31 40.078125 35.4375 
Q 35.15625 39.890625 26.703125 39.890625 
Q 22.75 39.890625 18.8125 39.015625 
Q 14.890625 38.140625 10.796875 36.28125 
z
" id="DejaVuSans-53"/>
      </defs>
      <g transform="translate(67.096875 468.978467)scale(0.1 -0.1)">
       <use xlink:href="#DejaVuSans-48"/>
       <use x="63.623047" xlink:href="#DejaVuSans-46"/>
       <use x="95.410156" xlink:href="#DejaVuSans-53"/>
      </g>
     </g>
    </g>
    <g id="ytick_12">
     <g id="line2d_53">
      <path clip-path="url(#paf963b4cae)" d="M 90 428.858452 
L 648 428.858452 
" style="fill:none;stroke:#b0b0b0;stroke-linecap:square;stroke-width:0.8;"/>
     </g>
     <g id="line2d_54">
      <g>
       <use style="stroke:#000000;stroke-width:0.8;" x="90" xlink:href="#mbff404799d" y="428.858452"/>
      </g>
     </g>
     <g id="text_29">
      <!-- 0.6 -->
      <g transform="translate(67.096875 432.65767)scale(0.1 -0.1)">
       <use xlink:href="#DejaVuSans-48"/>
       <use x="63.623047" xlink:href="#DejaVuSans-46"/>
       <use x="95.410156" xlink:href="#DejaVuSans-54"/>
      </g>
     </g>
    </g>
    <g id="text_30">
     <!-- Logloss -->
     <defs>
      <path d="M 9.8125 72.90625 
L 19.671875 72.90625 
L 19.671875 8.296875 
L 55.171875 8.296875 
L 55.171875 0 
L 9.8125 0 
z
" id="DejaVuSans-76"/>
      <path d="M 45.40625 27.984375 
Q 45.40625 37.75 41.375 43.109375 
Q 37.359375 48.484375 30.078125 48.484375 
Q 22.859375 48.484375 18.828125 43.109375 
Q 14.796875 37.75 14.796875 27.984375 
Q 14.796875 18.265625 18.828125 12.890625 
Q 22.859375 7.515625 30.078125 7.515625 
Q 37.359375 7.515625 41.375 12.890625 
Q 45.40625 18.265625 45.40625 27.984375 
z
M 54.390625 6.78125 
Q 54.390625 -7.171875 48.1875 -13.984375 
Q 42 -20.796875 29.203125 -20.796875 
Q 24.46875 -20.796875 20.265625 -20.09375 
Q 16.0625 -19.390625 12.109375 -17.921875 
L 12.109375 -9.1875 
Q 16.0625 -11.328125 19.921875 -12.34375 
Q 23.78125 -13.375 27.78125 -13.375 
Q 36.625 -13.375 41.015625 -8.765625 
Q 45.40625 -4.15625 45.40625 5.171875 
L 45.40625 9.625 
Q 42.625 4.78125 38.28125 2.390625 
Q 33.9375 0 27.875 0 
Q 17.828125 0 11.671875 7.65625 
Q 5.515625 15.328125 5.515625 27.984375 
Q 5.515625 40.671875 11.671875 48.328125 
Q 17.828125 56 27.875 56 
Q 33.9375 56 38.28125 53.609375 
Q 42.625 51.21875 45.40625 46.390625 
L 45.40625 54.6875 
L 54.390625 54.6875 
z
" id="DejaVuSans-103"/>
      <path d="M 44.28125 53.078125 
L 44.28125 44.578125 
Q 40.484375 46.53125 36.375 47.5 
Q 32.28125 48.484375 27.875 48.484375 
Q 21.1875 48.484375 17.84375 46.4375 
Q 14.5 44.390625 14.5 40.28125 
Q 14.5 37.15625 16.890625 35.375 
Q 19.28125 33.59375 26.515625 31.984375 
L 29.59375 31.296875 
Q 39.15625 29.25 43.1875 25.515625 
Q 47.21875 21.78125 47.21875 15.09375 
Q 47.21875 7.46875 41.1875 3.015625 
Q 35.15625 -1.421875 24.609375 -1.421875 
Q 20.21875 -1.421875 15.453125 -0.5625 
Q 10.6875 0.296875 5.421875 2 
L 5.421875 11.28125 
Q 10.40625 8.6875 15.234375 7.390625 
Q 20.0625 6.109375 24.8125 6.109375 
Q 31.15625 6.109375 34.5625 8.28125 
Q 37.984375 10.453125 37.984375 14.40625 
Q 37.984375 18.0625 35.515625 20.015625 
Q 33.0625 21.96875 24.703125 23.78125 
L 21.578125 24.515625 
Q 13.234375 26.265625 9.515625 29.90625 
Q 5.8125 33.546875 5.8125 39.890625 
Q 5.8125 47.609375 11.28125 51.796875 
Q 16.75 56 26.8125 56 
Q 31.78125 56 36.171875 55.265625 
Q 40.578125 54.546875 44.28125 53.078125 
z
" id="DejaVuSans-115"/>
     </defs>
     <g transform="translate(61.017187 555.976562)rotate(-90)scale(0.1 -0.1)">
      <use xlink:href="#DejaVuSans-76"/>
      <use x="55.697266" xlink:href="#DejaVuSans-111"/>
      <use x="116.878906" xlink:href="#DejaVuSans-103"/>
      <use x="180.355469" xlink:href="#DejaVuSans-108"/>
      <use x="208.138672" xlink:href="#DejaVuSans-111"/>
      <use x="269.320312" xlink:href="#DejaVuSans-115"/>
      <use x="321.419922" xlink:href="#DejaVuSans-115"/>
     </g>
    </g>
   </g>
   <g id="line2d_55">
    <path clip-path="url(#paf963b4cae)" d="M 115.363636 428.289305 
L 120.487603 455.536076 
L 125.61157 478.27798 
L 130.735537 497.432115 
L 135.859504 514.052511 
L 140.983471 528.338933 
L 146.107438 540.774447 
L 151.231405 551.568625 
L 156.355372 561.126079 
L 161.479339 569.622966 
L 166.603306 577.311715 
L 171.727273 583.822581 
L 176.85124 589.941909 
L 181.975207 595.358066 
L 187.099174 600.291883 
L 192.22314 604.740454 
L 197.347107 608.688162 
L 202.471074 612.183312 
L 207.595041 615.36683 
L 212.719008 618.223097 
L 217.842975 620.727416 
L 222.966942 623.047225 
L 228.090909 625.100077 
L 233.214876 626.982584 
L 238.338843 628.679491 
L 243.46281 630.227847 
L 248.586777 631.626197 
L 253.710744 632.86401 
L 258.834711 634.027728 
L 263.958678 635.0843 
L 269.082645 636.036632 
L 274.206612 636.88 
L 279.330579 637.656176 
L 284.454545 638.346634 
L 289.578512 638.960819 
L 294.702479 639.532508 
L 299.826446 640.05008 
L 304.950413 640.519344 
L 310.07438 640.94684 
L 315.198347 641.320218 
L 320.322314 641.664539 
L 325.446281 641.988157 
L 330.570248 642.258747 
L 335.694215 642.527884 
L 340.818182 642.747262 
L 345.942149 642.988432 
L 351.066116 643.204541 
L 356.190083 643.399947 
L 361.31405 643.571018 
L 366.438017 643.725018 
L 371.561983 643.874659 
L 376.68595 644.014494 
L 381.809917 644.151424 
L 386.933884 644.253485 
L 392.057851 644.355547 
L 397.181818 644.457971 
L 402.305785 644.558217 
L 407.429752 644.645023 
L 412.553719 644.699868 
L 417.677686 644.772873 
L 422.801653 644.825901 
L 427.92562 644.879656 
L 433.049587 644.942128 
L 438.173554 644.993703 
L 443.297521 645.047458 
L 448.421488 645.104482 
L 453.545455 645.151335 
L 458.669421 645.192015 
L 463.793388 645.235963 
L 468.917355 645.281727 
L 474.041322 645.32967 
L 479.165289 645.365265 
L 484.289256 645.400133 
L 489.413223 645.435001 
L 494.53719 645.461152 
L 499.661157 645.488029 
L 504.785124 645.501468 
L 509.909091 645.521444 
L 515.033058 645.549048 
L 520.157025 645.573746 
L 525.280992 645.596628 
L 530.404959 645.620237 
L 535.528926 645.646025 
L 540.652893 645.668907 
L 545.77686 645.680166 
L 550.900826 645.700143 
L 556.024793 645.721209 
L 561.14876 645.740822 
L 566.272727 645.760072 
L 571.396694 645.772784 
L 576.520661 645.788402 
L 581.644628 645.806199 
L 586.768595 645.818185 
L 591.892562 645.824723 
L 597.016529 645.833077 
L 602.140496 645.857412 
L 607.264463 645.87194 
L 612.38843 645.882836 
L 617.512397 645.897365 
L 622.636364 645.906445 
" style="fill:none;stroke:#ff0000;stroke-linecap:square;stroke-width:1.5;"/>
   </g>
   <g id="line2d_56">
    <path clip-path="url(#paf963b4cae)" d="M 115.363636 428.470182 
L 120.487603 455.948318 
L 125.61157 478.874004 
L 130.735537 498.200663 
L 135.859504 514.917673 
L 140.983471 529.337755 
L 146.107438 541.844821 
L 151.231405 552.7614 
L 156.355372 562.421642 
L 161.479339 570.96502 
L 166.603306 578.669024 
L 171.727273 585.273234 
L 176.85124 591.376581 
L 181.975207 596.772398 
L 187.099174 601.643017 
L 192.22314 606.042192 
L 197.347107 609.946314 
L 202.471074 613.422577 
L 207.595041 616.581034 
L 212.719008 619.398801 
L 217.842975 621.877332 
L 222.966942 624.170991 
L 228.090909 626.212583 
L 233.214876 628.074387 
L 238.338843 629.749139 
L 243.46281 631.270253 
L 248.586777 632.637731 
L 253.710744 633.855568 
L 258.834711 634.986234 
L 263.958678 635.999948 
L 269.082645 636.928307 
L 274.206612 637.75061 
L 279.330579 638.511894 
L 284.454545 639.184555 
L 289.578512 639.79765 
L 294.702479 640.354448 
L 299.826446 640.855675 
L 304.950413 641.325303 
L 310.07438 641.743718 
L 315.198347 642.118549 
L 320.322314 642.457059 
L 325.446281 642.772323 
L 330.570248 643.042187 
L 335.694215 643.30188 
L 340.818182 643.528885 
L 345.942149 643.749716 
L 351.066116 643.947301 
L 356.190083 644.131811 
L 361.31405 644.29707 
L 366.438017 644.443806 
L 371.561983 644.584005 
L 376.68595 644.714033 
L 381.809917 644.837887 
L 386.933884 644.942128 
L 392.057851 645.039831 
L 397.181818 645.134991 
L 402.305785 645.224703 
L 407.429752 645.299161 
L 412.553719 645.357274 
L 417.677686 645.425194 
L 422.801653 645.474954 
L 427.92562 645.529435 
L 433.049587 645.579194 
L 438.173554 645.627864 
L 443.297521 645.675081 
L 448.421488 645.71685 
L 453.545455 645.758619 
L 458.669421 645.797482 
L 463.793388 645.831987 
L 468.917355 645.864313 
L 474.041322 645.900997 
L 479.165289 645.929327 
L 484.289256 645.95802 
L 489.413223 645.982718 
L 494.53719 646.005964 
L 499.661157 646.026667 
L 504.785124 646.044101 
L 509.909091 646.064077 
L 515.033058 646.086596 
L 520.157025 646.102577 
L 525.280992 646.117469 
L 530.404959 646.134176 
L 535.528926 646.147252 
L 540.652893 646.160327 
L 545.77686 646.172313 
L 550.900826 646.185025 
L 556.024793 646.199554 
L 561.14876 646.210087 
L 566.272727 646.220983 
L 571.396694 646.229337 
L 576.520661 646.237327 
L 581.644628 646.247134 
L 586.768595 646.254035 
L 591.892562 646.260572 
L 597.016529 646.268926 
L 602.140496 646.282728 
L 607.264463 646.291082 
L 612.38843 646.29762 
L 617.512397 646.30561 
L 622.636364 646.310695 
" style="fill:none;stroke:#00bfbf;stroke-linecap:square;stroke-width:1.5;"/>
   </g>
   <g id="patch_9">
    <path d="M 90 657.211765 
L 90 417.388235 
" style="fill:none;stroke:#000000;stroke-linecap:square;stroke-linejoin:miter;stroke-width:0.8;"/>
   </g>
   <g id="patch_10">
    <path d="M 648 657.211765 
L 648 417.388235 
" style="fill:none;stroke:#000000;stroke-linecap:square;stroke-linejoin:miter;stroke-width:0.8;"/>
   </g>
   <g id="patch_11">
    <path d="M 90 657.211765 
L 648 657.211765 
" style="fill:none;stroke:#000000;stroke-linecap:square;stroke-linejoin:miter;stroke-width:0.8;"/>
   </g>
   <g id="patch_12">
    <path d="M 90 417.388235 
L 648 417.388235 
" style="fill:none;stroke:#000000;stroke-linecap:square;stroke-linejoin:miter;stroke-width:0.8;"/>
   </g>
   <g id="legend_2">
    <g id="patch_13">
     <path d="M 583.559375 454.744485 
L 641 454.744485 
Q 643 454.744485 643 452.744485 
L 643 424.388235 
Q 643 422.388235 641 422.388235 
L 583.559375 422.388235 
Q 581.559375 422.388235 581.559375 424.388235 
L 581.559375 452.744485 
Q 581.559375 454.744485 583.559375 454.744485 
z
" style="fill:#ffffff;opacity:0.8;stroke:#cccccc;stroke-linejoin:miter;"/>
    </g>
    <g id="line2d_57">
     <path d="M 585.559375 430.486673 
L 605.559375 430.486673 
" style="fill:none;stroke:#ff0000;stroke-linecap:square;stroke-width:1.5;"/>
    </g>
    <g id="line2d_58"/>
    <g id="text_31">
     <!-- Eval -->
     <g transform="translate(613.559375 433.986673)scale(0.1 -0.1)">
      <use xlink:href="#DejaVuSans-69"/>
      <use x="63.183594" xlink:href="#DejaVuSans-118"/>
      <use x="122.363281" xlink:href="#DejaVuSans-97"/>
      <use x="183.642578" xlink:href="#DejaVuSans-108"/>
     </g>
    </g>
    <g id="line2d_59">
     <path d="M 585.559375 445.164798 
L 605.559375 445.164798 
" style="fill:none;stroke:#00bfbf;stroke-linecap:square;stroke-width:1.5;"/>
    </g>
    <g id="line2d_60"/>
    <g id="text_32">
     <!-- Train -->
     <g transform="translate(613.559375 448.664798)scale(0.1 -0.1)">
      <use xlink:href="#DejaVuSans-84"/>
      <use x="60.865234" xlink:href="#DejaVuSans-114"/>
      <use x="101.978516" xlink:href="#DejaVuSans-97"/>
      <use x="163.257812" xlink:href="#DejaVuSans-105"/>
      <use x="191.041016" xlink:href="#DejaVuSans-110"/>
     </g>
    </g>
   </g>
  </g>
  <g id="axes_3">
   <g id="patch_14">
    <path d="M 90 945 
L 648 945 
L 648 705.176471 
L 90 705.176471 
z
" style="fill:#ffffff;"/>
   </g>
   <g id="matplotlib.axis_5">
    <g id="xtick_13">
     <g id="line2d_61">
      <path clip-path="url(#p961806354d)" d="M 115.363636 945 
L 115.363636 705.176471 
" style="fill:none;stroke:#b0b0b0;stroke-linecap:square;stroke-width:0.8;"/>
     </g>
     <g id="line2d_62">
      <g>
       <use style="stroke:#000000;stroke-width:0.8;" x="115.363636" xlink:href="#m24c148b266" y="945"/>
      </g>
     </g>
     <g id="text_33">
      <!-- 0 -->
      <g transform="translate(112.182386 959.598438)scale(0.1 -0.1)">
       <use xlink:href="#DejaVuSans-48"/>
      </g>
     </g>
    </g>
    <g id="xtick_14">
     <g id="line2d_63">
      <path clip-path="url(#p961806354d)" d="M 217.842975 945 
L 217.842975 705.176471 
" style="fill:none;stroke:#b0b0b0;stroke-linecap:square;stroke-width:0.8;"/>
     </g>
     <g id="line2d_64">
      <g>
       <use style="stroke:#000000;stroke-width:0.8;" x="217.842975" xlink:href="#m24c148b266" y="945"/>
      </g>
     </g>
     <g id="text_34">
      <!-- 20 -->
      <g transform="translate(211.480475 959.598438)scale(0.1 -0.1)">
       <use xlink:href="#DejaVuSans-50"/>
       <use x="63.623047" xlink:href="#DejaVuSans-48"/>
      </g>
     </g>
    </g>
    <g id="xtick_15">
     <g id="line2d_65">
      <path clip-path="url(#p961806354d)" d="M 320.322314 945 
L 320.322314 705.176471 
" style="fill:none;stroke:#b0b0b0;stroke-linecap:square;stroke-width:0.8;"/>
     </g>
     <g id="line2d_66">
      <g>
       <use style="stroke:#000000;stroke-width:0.8;" x="320.322314" xlink:href="#m24c148b266" y="945"/>
      </g>
     </g>
     <g id="text_35">
      <!-- 40 -->
      <g transform="translate(313.959814 959.598438)scale(0.1 -0.1)">
       <use xlink:href="#DejaVuSans-52"/>
       <use x="63.623047" xlink:href="#DejaVuSans-48"/>
      </g>
     </g>
    </g>
    <g id="xtick_16">
     <g id="line2d_67">
      <path clip-path="url(#p961806354d)" d="M 422.801653 945 
L 422.801653 705.176471 
" style="fill:none;stroke:#b0b0b0;stroke-linecap:square;stroke-width:0.8;"/>
     </g>
     <g id="line2d_68">
      <g>
       <use style="stroke:#000000;stroke-width:0.8;" x="422.801653" xlink:href="#m24c148b266" y="945"/>
      </g>
     </g>
     <g id="text_36">
      <!-- 60 -->
      <g transform="translate(416.439153 959.598438)scale(0.1 -0.1)">
       <use xlink:href="#DejaVuSans-54"/>
       <use x="63.623047" xlink:href="#DejaVuSans-48"/>
      </g>
     </g>
    </g>
    <g id="xtick_17">
     <g id="line2d_69">
      <path clip-path="url(#p961806354d)" d="M 525.280992 945 
L 525.280992 705.176471 
" style="fill:none;stroke:#b0b0b0;stroke-linecap:square;stroke-width:0.8;"/>
     </g>
     <g id="line2d_70">
      <g>
       <use style="stroke:#000000;stroke-width:0.8;" x="525.280992" xlink:href="#m24c148b266" y="945"/>
      </g>
     </g>
     <g id="text_37">
      <!-- 80 -->
      <g transform="translate(518.918492 959.598438)scale(0.1 -0.1)">
       <use xlink:href="#DejaVuSans-56"/>
       <use x="63.623047" xlink:href="#DejaVuSans-48"/>
      </g>
     </g>
    </g>
    <g id="xtick_18">
     <g id="line2d_71">
      <path clip-path="url(#p961806354d)" d="M 627.760331 945 
L 627.760331 705.176471 
" style="fill:none;stroke:#b0b0b0;stroke-linecap:square;stroke-width:0.8;"/>
     </g>
     <g id="line2d_72">
      <g>
       <use style="stroke:#000000;stroke-width:0.8;" x="627.760331" xlink:href="#m24c148b266" y="945"/>
      </g>
     </g>
     <g id="text_38">
      <!-- 100 -->
      <g transform="translate(618.216581 959.598438)scale(0.1 -0.1)">
       <use xlink:href="#DejaVuSans-49"/>
       <use x="63.623047" xlink:href="#DejaVuSans-48"/>
       <use x="127.246094" xlink:href="#DejaVuSans-48"/>
      </g>
     </g>
    </g>
    <g id="text_39">
     <!-- Round -->
     <g transform="translate(352.957812 973.276562)scale(0.1 -0.1)">
      <use xlink:href="#DejaVuSans-82"/>
      <use x="69.419922" xlink:href="#DejaVuSans-111"/>
      <use x="130.601562" xlink:href="#DejaVuSans-117"/>
      <use x="193.980469" xlink:href="#DejaVuSans-110"/>
      <use x="257.359375" xlink:href="#DejaVuSans-100"/>
     </g>
    </g>
   </g>
   <g id="matplotlib.axis_6">
    <g id="ytick_13">
     <g id="line2d_73">
      <path clip-path="url(#p961806354d)" d="M 90 934.09893 
L 648 934.09893 
" style="fill:none;stroke:#b0b0b0;stroke-linecap:square;stroke-width:0.8;"/>
     </g>
     <g id="line2d_74">
      <g>
       <use style="stroke:#000000;stroke-width:0.8;" x="90" xlink:href="#mbff404799d" y="934.09893"/>
      </g>
     </g>
     <g id="text_40">
      <!-- 0.000 -->
      <g transform="translate(54.371875 937.898149)scale(0.1 -0.1)">
       <use xlink:href="#DejaVuSans-48"/>
       <use x="63.623047" xlink:href="#DejaVuSans-46"/>
       <use x="95.410156" xlink:href="#DejaVuSans-48"/>
       <use x="159.033203" xlink:href="#DejaVuSans-48"/>
       <use x="222.65625" xlink:href="#DejaVuSans-48"/>
      </g>
     </g>
    </g>
    <g id="ytick_14">
     <g id="line2d_75">
      <path clip-path="url(#p961806354d)" d="M 90 888.073727 
L 648 888.073727 
" style="fill:none;stroke:#b0b0b0;stroke-linecap:square;stroke-width:0.8;"/>
     </g>
     <g id="line2d_76">
      <g>
       <use style="stroke:#000000;stroke-width:0.8;" x="90" xlink:href="#mbff404799d" y="888.073727"/>
      </g>
     </g>
     <g id="text_41">
      <!-- 0.002 -->
      <g transform="translate(54.371875 891.872945)scale(0.1 -0.1)">
       <use xlink:href="#DejaVuSans-48"/>
       <use x="63.623047" xlink:href="#DejaVuSans-46"/>
       <use x="95.410156" xlink:href="#DejaVuSans-48"/>
       <use x="159.033203" xlink:href="#DejaVuSans-48"/>
       <use x="222.65625" xlink:href="#DejaVuSans-50"/>
      </g>
     </g>
    </g>
    <g id="ytick_15">
     <g id="line2d_77">
      <path clip-path="url(#p961806354d)" d="M 90 842.048523 
L 648 842.048523 
" style="fill:none;stroke:#b0b0b0;stroke-linecap:square;stroke-width:0.8;"/>
     </g>
     <g id="line2d_78">
      <g>
       <use style="stroke:#000000;stroke-width:0.8;" x="90" xlink:href="#mbff404799d" y="842.048523"/>
      </g>
     </g>
     <g id="text_42">
      <!-- 0.004 -->
      <g transform="translate(54.371875 845.847742)scale(0.1 -0.1)">
       <use xlink:href="#DejaVuSans-48"/>
       <use x="63.623047" xlink:href="#DejaVuSans-46"/>
       <use x="95.410156" xlink:href="#DejaVuSans-48"/>
       <use x="159.033203" xlink:href="#DejaVuSans-48"/>
       <use x="222.65625" xlink:href="#DejaVuSans-52"/>
      </g>
     </g>
    </g>
    <g id="ytick_16">
     <g id="line2d_79">
      <path clip-path="url(#p961806354d)" d="M 90 796.023319 
L 648 796.023319 
" style="fill:none;stroke:#b0b0b0;stroke-linecap:square;stroke-width:0.8;"/>
     </g>
     <g id="line2d_80">
      <g>
       <use style="stroke:#000000;stroke-width:0.8;" x="90" xlink:href="#mbff404799d" y="796.023319"/>
      </g>
     </g>
     <g id="text_43">
      <!-- 0.006 -->
      <g transform="translate(54.371875 799.822538)scale(0.1 -0.1)">
       <use xlink:href="#DejaVuSans-48"/>
       <use x="63.623047" xlink:href="#DejaVuSans-46"/>
       <use x="95.410156" xlink:href="#DejaVuSans-48"/>
       <use x="159.033203" xlink:href="#DejaVuSans-48"/>
       <use x="222.65625" xlink:href="#DejaVuSans-54"/>
      </g>
     </g>
    </g>
    <g id="ytick_17">
     <g id="line2d_81">
      <path clip-path="url(#p961806354d)" d="M 90 749.998115 
L 648 749.998115 
" style="fill:none;stroke:#b0b0b0;stroke-linecap:square;stroke-width:0.8;"/>
     </g>
     <g id="line2d_82">
      <g>
       <use style="stroke:#000000;stroke-width:0.8;" x="90" xlink:href="#mbff404799d" y="749.998115"/>
      </g>
     </g>
     <g id="text_44">
      <!-- 0.008 -->
      <g transform="translate(54.371875 753.797334)scale(0.1 -0.1)">
       <use xlink:href="#DejaVuSans-48"/>
       <use x="63.623047" xlink:href="#DejaVuSans-46"/>
       <use x="95.410156" xlink:href="#DejaVuSans-48"/>
       <use x="159.033203" xlink:href="#DejaVuSans-48"/>
       <use x="222.65625" xlink:href="#DejaVuSans-56"/>
      </g>
     </g>
    </g>
    <g id="text_45">
     <!-- Error -->
     <g transform="translate(48.292188 837.471048)rotate(-90)scale(0.1 -0.1)">
      <use xlink:href="#DejaVuSans-69"/>
      <use x="63.183594" xlink:href="#DejaVuSans-114"/>
      <use x="104.28125" xlink:href="#DejaVuSans-114"/>
      <use x="145.363281" xlink:href="#DejaVuSans-111"/>
      <use x="206.544922" xlink:href="#DejaVuSans-114"/>
     </g>
    </g>
   </g>
   <g id="line2d_83">
    <path clip-path="url(#p961806354d)" d="M 115.363636 716.07754 
L 120.487603 752.414439 
L 125.61157 752.414439 
L 130.735537 744.337015 
L 135.859504 780.673914 
L 140.983471 778.671817 
L 146.107438 786.726228 
L 151.231405 788.751337 
L 156.355372 796.82876 
L 161.479339 798.853869 
L 166.603306 817.010812 
L 171.727273 815.008716 
L 176.85124 819.035921 
L 181.975207 817.010812 
L 187.099174 823.063126 
L 192.22314 841.243082 
L 197.347107 843.268191 
L 202.471074 843.268191 
L 207.595041 851.345614 
L 212.719008 855.372819 
L 217.842975 859.400025 
L 222.966942 863.450243 
L 228.090909 865.475352 
L 233.214876 865.475352 
L 238.338843 869.502557 
L 243.46281 879.605089 
L 248.586777 879.605089 
L 253.710744 881.607186 
L 258.834711 885.657403 
L 263.958678 897.762032 
L 269.082645 897.762032 
L 274.206612 899.787141 
L 279.330579 899.787141 
L 284.454545 901.789237 
L 289.578512 901.789237 
L 294.702479 901.789237 
L 299.826446 901.789237 
L 304.950413 903.814346 
L 310.07438 905.839455 
L 315.198347 905.839455 
L 320.322314 907.864564 
L 325.446281 907.864564 
L 330.570248 907.864564 
L 335.694215 907.864564 
L 340.818182 907.864564 
L 345.942149 907.864564 
L 351.066116 907.864564 
L 356.190083 909.866661 
L 361.31405 909.866661 
L 366.438017 913.916879 
L 371.561983 913.916879 
L 376.68595 913.916879 
L 381.809917 917.944084 
L 386.933884 917.944084 
L 392.057851 917.944084 
L 397.181818 917.944084 
L 402.305785 917.944084 
L 407.429752 917.944084 
L 412.553719 917.944084 
L 417.677686 917.944084 
L 422.801653 917.944084 
L 427.92562 917.944084 
L 433.049587 917.944084 
L 438.173554 917.944084 
L 443.297521 917.944084 
L 448.421488 917.944084 
L 453.545455 917.944084 
L 458.669421 917.944084 
L 463.793388 917.944084 
L 468.917355 917.944084 
L 474.041322 917.944084 
L 479.165289 919.969193 
L 484.289256 921.994302 
L 489.413223 921.994302 
L 494.53719 921.994302 
L 499.661157 921.994302 
L 504.785124 921.994302 
L 509.909091 921.994302 
L 515.033058 921.994302 
L 520.157025 921.994302 
L 525.280992 921.994302 
L 530.404959 921.994302 
L 535.528926 921.994302 
L 540.652893 921.994302 
L 545.77686 921.994302 
L 550.900826 921.994302 
L 556.024793 921.994302 
L 561.14876 921.994302 
L 566.272727 921.994302 
L 571.396694 921.994302 
L 576.520661 921.994302 
L 581.644628 921.994302 
L 586.768595 921.994302 
L 591.892562 921.994302 
L 597.016529 921.994302 
L 602.140496 921.994302 
L 607.264463 921.994302 
L 612.38843 921.994302 
L 617.512397 921.994302 
L 622.636364 923.996398 
" style="fill:none;stroke:#ff0000;stroke-linecap:square;stroke-width:1.5;"/>
   </g>
   <g id="line2d_84">
    <path clip-path="url(#p961806354d)" d="M 115.363636 784.424968 
L 120.487603 806.931292 
L 125.61157 825.962714 
L 130.735537 828.563138 
L 135.859504 846.720081 
L 140.983471 846.720081 
L 146.107438 854.498341 
L 151.231405 850.171971 
L 156.355372 856.247298 
L 161.479339 853.646874 
L 166.603306 870.952351 
L 171.727273 869.203393 
L 176.85124 875.27872 
L 181.975207 873.529762 
L 187.099174 877.856131 
L 192.22314 890.835239 
L 197.347107 896.036087 
L 202.471074 897.762032 
L 207.595041 899.487977 
L 212.719008 903.814346 
L 217.842975 909.015194 
L 222.966942 915.067509 
L 228.090909 917.667933 
L 233.214876 921.119823 
L 238.338843 922.845768 
L 243.46281 927.172137 
L 248.586777 927.172137 
L 253.710744 928.898082 
L 258.834711 929.772561 
L 263.958678 933.224452 
L 269.082645 933.224452 
L 274.206612 933.224452 
L 279.330579 933.224452 
L 284.454545 934.09893 
L 289.578512 933.224452 
L 294.702479 934.09893 
L 299.826446 933.224452 
L 304.950413 933.224452 
L 310.07438 933.224452 
L 315.198347 933.224452 
L 320.322314 933.224452 
L 325.446281 933.224452 
L 330.570248 933.224452 
L 335.694215 933.224452 
L 340.818182 932.372985 
L 345.942149 932.372985 
L 351.066116 932.372985 
L 356.190083 932.372985 
L 361.31405 932.372985 
L 366.438017 932.372985 
L 371.561983 932.372985 
L 376.68595 932.372985 
L 381.809917 932.372985 
L 386.933884 932.372985 
L 392.057851 932.372985 
L 397.181818 932.372985 
L 402.305785 932.372985 
L 407.429752 933.224452 
L 412.553719 933.224452 
L 417.677686 933.224452 
L 422.801653 933.224452 
L 427.92562 933.224452 
L 433.049587 933.224452 
L 438.173554 933.224452 
L 443.297521 933.224452 
L 448.421488 933.224452 
L 453.545455 933.224452 
L 458.669421 933.224452 
L 463.793388 933.224452 
L 468.917355 933.224452 
L 474.041322 933.224452 
L 479.165289 934.09893 
L 484.289256 934.09893 
L 489.413223 934.09893 
L 494.53719 934.09893 
L 499.661157 934.09893 
L 504.785124 934.09893 
L 509.909091 934.09893 
L 515.033058 934.09893 
L 520.157025 934.09893 
L 525.280992 934.09893 
L 530.404959 934.09893 
L 535.528926 934.09893 
L 540.652893 934.09893 
L 545.77686 934.09893 
L 550.900826 934.09893 
L 556.024793 934.09893 
L 561.14876 934.09893 
L 566.272727 934.09893 
L 571.396694 934.09893 
L 576.520661 934.09893 
L 581.644628 934.09893 
L 586.768595 934.09893 
L 591.892562 934.09893 
L 597.016529 934.09893 
L 602.140496 934.09893 
L 607.264463 934.09893 
L 612.38843 934.09893 
L 617.512397 934.09893 
L 622.636364 934.09893 
" style="fill:none;stroke:#00bfbf;stroke-linecap:square;stroke-width:1.5;"/>
   </g>
   <g id="patch_15">
    <path d="M 90 945 
L 90 705.176471 
" style="fill:none;stroke:#000000;stroke-linecap:square;stroke-linejoin:miter;stroke-width:0.8;"/>
   </g>
   <g id="patch_16">
    <path d="M 648 945 
L 648 705.176471 
" style="fill:none;stroke:#000000;stroke-linecap:square;stroke-linejoin:miter;stroke-width:0.8;"/>
   </g>
   <g id="patch_17">
    <path d="M 90 945 
L 648 945 
" style="fill:none;stroke:#000000;stroke-linecap:square;stroke-linejoin:miter;stroke-width:0.8;"/>
   </g>
   <g id="patch_18">
    <path d="M 90 705.176471 
L 648 705.176471 
" style="fill:none;stroke:#000000;stroke-linecap:square;stroke-linejoin:miter;stroke-width:0.8;"/>
   </g>
   <g id="legend_3">
    <g id="patch_19">
     <path d="M 583.559375 742.532721 
L 641 742.532721 
Q 643 742.532721 643 740.532721 
L 643 712.176471 
Q 643 710.176471 641 710.176471 
L 583.559375 710.176471 
Q 581.559375 710.176471 581.559375 712.176471 
L 581.559375 740.532721 
Q 581.559375 742.532721 583.559375 742.532721 
z
" style="fill:#ffffff;opacity:0.8;stroke:#cccccc;stroke-linejoin:miter;"/>
    </g>
    <g id="line2d_85">
     <path d="M 585.559375 718.274908 
L 605.559375 718.274908 
" style="fill:none;stroke:#ff0000;stroke-linecap:square;stroke-width:1.5;"/>
    </g>
    <g id="line2d_86"/>
    <g id="text_46">
     <!-- Eval -->
     <g transform="translate(613.559375 721.774908)scale(0.1 -0.1)">
      <use xlink:href="#DejaVuSans-69"/>
      <use x="63.183594" xlink:href="#DejaVuSans-118"/>
      <use x="122.363281" xlink:href="#DejaVuSans-97"/>
      <use x="183.642578" xlink:href="#DejaVuSans-108"/>
     </g>
    </g>
    <g id="line2d_87">
     <path d="M 585.559375 732.953033 
L 605.559375 732.953033 
" style="fill:none;stroke:#00bfbf;stroke-linecap:square;stroke-width:1.5;"/>
    </g>
    <g id="line2d_88"/>
    <g id="text_47">
     <!-- Train -->
     <g transform="translate(613.559375 736.453033)scale(0.1 -0.1)">
      <use xlink:href="#DejaVuSans-84"/>
      <use x="60.865234" xlink:href="#DejaVuSans-114"/>
      <use x="101.978516" xlink:href="#DejaVuSans-97"/>
      <use x="163.257812" xlink:href="#DejaVuSans-105"/>
      <use x="191.041016" xlink:href="#DejaVuSans-110"/>
     </g>
    </g>
   </g>
  </g>
 </g>
 <defs>
  <clipPath id="p2ff89197f6">
   <rect height="239.823529" width="558" x="90" y="129.6"/>
  </clipPath>
  <clipPath id="paf963b4cae">
   <rect height="239.823529" width="558" x="90" y="417.388235"/>
  </clipPath>
  <clipPath id="p961806354d">
   <rect height="239.823529" width="558" x="90" y="705.176471"/>
  </clipPath>
 </defs>
</svg>
