<?xml version="1.0" encoding="utf-8" standalone="no"?>
<!DOCTYPE svg PUBLIC "-//W3C//DTD SVG 1.1//EN"
  "http://www.w3.org/Graphics/SVG/1.1/DTD/svg11.dtd">
<!-- Created with matplotlib (https://matplotlib.org/) -->
<svg height="720pt" version="1.1" viewBox="0 0 720 720" width="720pt" xmlns="http://www.w3.org/2000/svg" xmlns:xlink="http://www.w3.org/1999/xlink">
 <defs>
  <style type="text/css">
*{stroke-linecap:butt;stroke-linejoin:round;}
  </style>
 </defs>
 <g id="figure_1">
  <g id="patch_1">
   <path d="M 0 720 
L 720 720 
L 720 0 
L 0 0 
z
" style="fill:#ffffff;"/>
  </g>
  <g id="axes_1">
   <g id="patch_2">
    <path d="M 90 338.4 
L 648 338.4 
L 648 86.4 
L 90 86.4 
z
" style="fill:#ffffff;"/>
   </g>
   <g id="matplotlib.axis_1">
    <g id="xtick_1">
     <g id="line2d_1">
      <path clip-path="url(#pfde82aae16)" d="M 115.363636 338.4 
L 115.363636 86.4 
" style="fill:none;stroke:#b0b0b0;stroke-linecap:square;stroke-width:0.8;"/>
     </g>
     <g id="line2d_2">
      <defs>
       <path d="M 0 0 
L 0 3.5 
" id="me16718ff9b" style="stroke:#000000;stroke-width:0.8;"/>
      </defs>
      <g>
       <use style="stroke:#000000;stroke-width:0.8;" x="115.363636" xlink:href="#me16718ff9b" y="338.4"/>
      </g>
     </g>
     <g id="text_1">
      <!-- 0 -->
      <defs>
       <path d="M 31.78125 66.40625 
Q 24.171875 66.40625 20.328125 58.90625 
Q 16.5 51.421875 16.5 36.375 
Q 16.5 21.390625 20.328125 13.890625 
Q 24.171875 6.390625 31.78125 6.390625 
Q 39.453125 6.390625 43.28125 13.890625 
Q 47.125 21.390625 47.125 36.375 
Q 47.125 51.421875 43.28125 58.90625 
Q 39.453125 66.40625 31.78125 66.40625 
z
M 31.78125 74.21875 
Q 44.046875 74.21875 50.515625 64.515625 
Q 56.984375 54.828125 56.984375 36.375 
Q 56.984375 17.96875 50.515625 8.265625 
Q 44.046875 -1.421875 31.78125 -1.421875 
Q 19.53125 -1.421875 13.0625 8.265625 
Q 6.59375 17.96875 6.59375 36.375 
Q 6.59375 54.828125 13.0625 64.515625 
Q 19.53125 74.21875 31.78125 74.21875 
z
" id="DejaVuSans-48"/>
      </defs>
      <g transform="translate(112.182386 352.998437)scale(0.1 -0.1)">
       <use xlink:href="#DejaVuSans-48"/>
      </g>
     </g>
    </g>
    <g id="xtick_2">
     <g id="line2d_3">
      <path clip-path="url(#pfde82aae16)" d="M 185.043956 338.4 
L 185.043956 86.4 
" style="fill:none;stroke:#b0b0b0;stroke-linecap:square;stroke-width:0.8;"/>
     </g>
     <g id="line2d_4">
      <g>
       <use style="stroke:#000000;stroke-width:0.8;" x="185.043956" xlink:href="#me16718ff9b" y="338.4"/>
      </g>
     </g>
     <g id="text_2">
      <!-- 50 -->
      <defs>
       <path d="M 10.796875 72.90625 
L 49.515625 72.90625 
L 49.515625 64.59375 
L 19.828125 64.59375 
L 19.828125 46.734375 
Q 21.96875 47.46875 24.109375 47.828125 
Q 26.265625 48.1875 28.421875 48.1875 
Q 40.625 48.1875 47.75 41.5 
Q 54.890625 34.8125 54.890625 23.390625 
Q 54.890625 11.625 47.5625 5.09375 
Q 40.234375 -1.421875 26.90625 -1.421875 
Q 22.3125 -1.421875 17.546875 -0.640625 
Q 12.796875 0.140625 7.71875 1.703125 
L 7.71875 11.625 
Q 12.109375 9.234375 16.796875 8.0625 
Q 21.484375 6.890625 26.703125 6.890625 
Q 35.15625 6.890625 40.078125 11.328125 
Q 45.015625 15.765625 45.015625 23.390625 
Q 45.015625 31 40.078125 35.4375 
Q 35.15625 39.890625 26.703125 39.890625 
Q 22.75 39.890625 18.8125 39.015625 
Q 14.890625 38.140625 10.796875 36.28125 
z
" id="DejaVuSans-53"/>
      </defs>
      <g transform="translate(178.681456 352.998437)scale(0.1 -0.1)">
       <use xlink:href="#DejaVuSans-53"/>
       <use x="63.623047" xlink:href="#DejaVuSans-48"/>
      </g>
     </g>
    </g>
    <g id="xtick_3">
     <g id="line2d_5">
      <path clip-path="url(#pfde82aae16)" d="M 254.724276 338.4 
L 254.724276 86.4 
" style="fill:none;stroke:#b0b0b0;stroke-linecap:square;stroke-width:0.8;"/>
     </g>
     <g id="line2d_6">
      <g>
       <use style="stroke:#000000;stroke-width:0.8;" x="254.724276" xlink:href="#me16718ff9b" y="338.4"/>
      </g>
     </g>
     <g id="text_3">
      <!-- 100 -->
      <defs>
       <path d="M 12.40625 8.296875 
L 28.515625 8.296875 
L 28.515625 63.921875 
L 10.984375 60.40625 
L 10.984375 69.390625 
L 28.421875 72.90625 
L 38.28125 72.90625 
L 38.28125 8.296875 
L 54.390625 8.296875 
L 54.390625 0 
L 12.40625 0 
z
" id="DejaVuSans-49"/>
      </defs>
      <g transform="translate(245.180526 352.998437)scale(0.1 -0.1)">
       <use xlink:href="#DejaVuSans-49"/>
       <use x="63.623047" xlink:href="#DejaVuSans-48"/>
       <use x="127.246094" xlink:href="#DejaVuSans-48"/>
      </g>
     </g>
    </g>
    <g id="xtick_4">
     <g id="line2d_7">
      <path clip-path="url(#pfde82aae16)" d="M 324.404595 338.4 
L 324.404595 86.4 
" style="fill:none;stroke:#b0b0b0;stroke-linecap:square;stroke-width:0.8;"/>
     </g>
     <g id="line2d_8">
      <g>
       <use style="stroke:#000000;stroke-width:0.8;" x="324.404595" xlink:href="#me16718ff9b" y="338.4"/>
      </g>
     </g>
     <g id="text_4">
      <!-- 150 -->
      <g transform="translate(314.860845 352.998437)scale(0.1 -0.1)">
       <use xlink:href="#DejaVuSans-49"/>
       <use x="63.623047" xlink:href="#DejaVuSans-53"/>
       <use x="127.246094" xlink:href="#DejaVuSans-48"/>
      </g>
     </g>
    </g>
    <g id="xtick_5">
     <g id="line2d_9">
      <path clip-path="url(#pfde82aae16)" d="M 394.084915 338.4 
L 394.084915 86.4 
" style="fill:none;stroke:#b0b0b0;stroke-linecap:square;stroke-width:0.8;"/>
     </g>
     <g id="line2d_10">
      <g>
       <use style="stroke:#000000;stroke-width:0.8;" x="394.084915" xlink:href="#me16718ff9b" y="338.4"/>
      </g>
     </g>
     <g id="text_5">
      <!-- 200 -->
      <defs>
       <path d="M 19.1875 8.296875 
L 53.609375 8.296875 
L 53.609375 0 
L 7.328125 0 
L 7.328125 8.296875 
Q 12.9375 14.109375 22.625 23.890625 
Q 32.328125 33.6875 34.8125 36.53125 
Q 39.546875 41.84375 41.421875 45.53125 
Q 43.3125 49.21875 43.3125 52.78125 
Q 43.3125 58.59375 39.234375 62.25 
Q 35.15625 65.921875 28.609375 65.921875 
Q 23.96875 65.921875 18.8125 64.3125 
Q 13.671875 62.703125 7.8125 59.421875 
L 7.8125 69.390625 
Q 13.765625 71.78125 18.9375 73 
Q 24.125 74.21875 28.421875 74.21875 
Q 39.75 74.21875 46.484375 68.546875 
Q 53.21875 62.890625 53.21875 53.421875 
Q 53.21875 48.921875 51.53125 44.890625 
Q 49.859375 40.875 45.40625 35.40625 
Q 44.1875 33.984375 37.640625 27.21875 
Q 31.109375 20.453125 19.1875 8.296875 
z
" id="DejaVuSans-50"/>
      </defs>
      <g transform="translate(384.541165 352.998437)scale(0.1 -0.1)">
       <use xlink:href="#DejaVuSans-50"/>
       <use x="63.623047" xlink:href="#DejaVuSans-48"/>
       <use x="127.246094" xlink:href="#DejaVuSans-48"/>
      </g>
     </g>
    </g>
    <g id="xtick_6">
     <g id="line2d_11">
      <path clip-path="url(#pfde82aae16)" d="M 463.765235 338.4 
L 463.765235 86.4 
" style="fill:none;stroke:#b0b0b0;stroke-linecap:square;stroke-width:0.8;"/>
     </g>
     <g id="line2d_12">
      <g>
       <use style="stroke:#000000;stroke-width:0.8;" x="463.765235" xlink:href="#me16718ff9b" y="338.4"/>
      </g>
     </g>
     <g id="text_6">
      <!-- 250 -->
      <g transform="translate(454.221485 352.998437)scale(0.1 -0.1)">
       <use xlink:href="#DejaVuSans-50"/>
       <use x="63.623047" xlink:href="#DejaVuSans-53"/>
       <use x="127.246094" xlink:href="#DejaVuSans-48"/>
      </g>
     </g>
    </g>
    <g id="xtick_7">
     <g id="line2d_13">
      <path clip-path="url(#pfde82aae16)" d="M 533.445554 338.4 
L 533.445554 86.4 
" style="fill:none;stroke:#b0b0b0;stroke-linecap:square;stroke-width:0.8;"/>
     </g>
     <g id="line2d_14">
      <g>
       <use style="stroke:#000000;stroke-width:0.8;" x="533.445554" xlink:href="#me16718ff9b" y="338.4"/>
      </g>
     </g>
     <g id="text_7">
      <!-- 300 -->
      <defs>
       <path d="M 40.578125 39.3125 
Q 47.65625 37.796875 51.625 33 
Q 55.609375 28.21875 55.609375 21.1875 
Q 55.609375 10.40625 48.1875 4.484375 
Q 40.765625 -1.421875 27.09375 -1.421875 
Q 22.515625 -1.421875 17.65625 -0.515625 
Q 12.796875 0.390625 7.625 2.203125 
L 7.625 11.71875 
Q 11.71875 9.328125 16.59375 8.109375 
Q 21.484375 6.890625 26.8125 6.890625 
Q 36.078125 6.890625 40.9375 10.546875 
Q 45.796875 14.203125 45.796875 21.1875 
Q 45.796875 27.640625 41.28125 31.265625 
Q 36.765625 34.90625 28.71875 34.90625 
L 20.21875 34.90625 
L 20.21875 43.015625 
L 29.109375 43.015625 
Q 36.375 43.015625 40.234375 45.921875 
Q 44.09375 48.828125 44.09375 54.296875 
Q 44.09375 59.90625 40.109375 62.90625 
Q 36.140625 65.921875 28.71875 65.921875 
Q 24.65625 65.921875 20.015625 65.03125 
Q 15.375 64.15625 9.8125 62.3125 
L 9.8125 71.09375 
Q 15.4375 72.65625 20.34375 73.4375 
Q 25.25 74.21875 29.59375 74.21875 
Q 40.828125 74.21875 47.359375 69.109375 
Q 53.90625 64.015625 53.90625 55.328125 
Q 53.90625 49.265625 50.4375 45.09375 
Q 46.96875 40.921875 40.578125 39.3125 
z
" id="DejaVuSans-51"/>
      </defs>
      <g transform="translate(523.901804 352.998437)scale(0.1 -0.1)">
       <use xlink:href="#DejaVuSans-51"/>
       <use x="63.623047" xlink:href="#DejaVuSans-48"/>
       <use x="127.246094" xlink:href="#DejaVuSans-48"/>
      </g>
     </g>
    </g>
    <g id="xtick_8">
     <g id="line2d_15">
      <path clip-path="url(#pfde82aae16)" d="M 603.125874 338.4 
L 603.125874 86.4 
" style="fill:none;stroke:#b0b0b0;stroke-linecap:square;stroke-width:0.8;"/>
     </g>
     <g id="line2d_16">
      <g>
       <use style="stroke:#000000;stroke-width:0.8;" x="603.125874" xlink:href="#me16718ff9b" y="338.4"/>
      </g>
     </g>
     <g id="text_8">
      <!-- 350 -->
      <g transform="translate(593.582124 352.998437)scale(0.1 -0.1)">
       <use xlink:href="#DejaVuSans-51"/>
       <use x="63.623047" xlink:href="#DejaVuSans-53"/>
       <use x="127.246094" xlink:href="#DejaVuSans-48"/>
      </g>
     </g>
    </g>
    <g id="text_9">
     <!-- Epoch -->
     <defs>
      <path d="M 9.8125 72.90625 
L 55.90625 72.90625 
L 55.90625 64.59375 
L 19.671875 64.59375 
L 19.671875 43.015625 
L 54.390625 43.015625 
L 54.390625 34.71875 
L 19.671875 34.71875 
L 19.671875 8.296875 
L 56.78125 8.296875 
L 56.78125 0 
L 9.8125 0 
z
" id="DejaVuSans-69"/>
      <path d="M 18.109375 8.203125 
L 18.109375 -20.796875 
L 9.078125 -20.796875 
L 9.078125 54.6875 
L 18.109375 54.6875 
L 18.109375 46.390625 
Q 20.953125 51.265625 25.265625 53.625 
Q 29.59375 56 35.59375 56 
Q 45.5625 56 51.78125 48.09375 
Q 58.015625 40.1875 58.015625 27.296875 
Q 58.015625 14.40625 51.78125 6.484375 
Q 45.5625 -1.421875 35.59375 -1.421875 
Q 29.59375 -1.421875 25.265625 0.953125 
Q 20.953125 3.328125 18.109375 8.203125 
z
M 48.6875 27.296875 
Q 48.6875 37.203125 44.609375 42.84375 
Q 40.53125 48.484375 33.40625 48.484375 
Q 26.265625 48.484375 22.1875 42.84375 
Q 18.109375 37.203125 18.109375 27.296875 
Q 18.109375 17.390625 22.1875 11.75 
Q 26.265625 6.109375 33.40625 6.109375 
Q 40.53125 6.109375 44.609375 11.75 
Q 48.6875 17.390625 48.6875 27.296875 
z
" id="DejaVuSans-112"/>
      <path d="M 30.609375 48.390625 
Q 23.390625 48.390625 19.1875 42.75 
Q 14.984375 37.109375 14.984375 27.296875 
Q 14.984375 17.484375 19.15625 11.84375 
Q 23.34375 6.203125 30.609375 6.203125 
Q 37.796875 6.203125 41.984375 11.859375 
Q 46.1875 17.53125 46.1875 27.296875 
Q 46.1875 37.015625 41.984375 42.703125 
Q 37.796875 48.390625 30.609375 48.390625 
z
M 30.609375 56 
Q 42.328125 56 49.015625 48.375 
Q 55.71875 40.765625 55.71875 27.296875 
Q 55.71875 13.875 49.015625 6.21875 
Q 42.328125 -1.421875 30.609375 -1.421875 
Q 18.84375 -1.421875 12.171875 6.21875 
Q 5.515625 13.875 5.515625 27.296875 
Q 5.515625 40.765625 12.171875 48.375 
Q 18.84375 56 30.609375 56 
z
" id="DejaVuSans-111"/>
      <path d="M 48.78125 52.59375 
L 48.78125 44.1875 
Q 44.96875 46.296875 41.140625 47.34375 
Q 37.3125 48.390625 33.40625 48.390625 
Q 24.65625 48.390625 19.8125 42.84375 
Q 14.984375 37.3125 14.984375 27.296875 
Q 14.984375 17.28125 19.8125 11.734375 
Q 24.65625 6.203125 33.40625 6.203125 
Q 37.3125 6.203125 41.140625 7.25 
Q 44.96875 8.296875 48.78125 10.40625 
L 48.78125 2.09375 
Q 45.015625 0.34375 40.984375 -0.53125 
Q 36.96875 -1.421875 32.421875 -1.421875 
Q 20.0625 -1.421875 12.78125 6.34375 
Q 5.515625 14.109375 5.515625 27.296875 
Q 5.515625 40.671875 12.859375 48.328125 
Q 20.21875 56 33.015625 56 
Q 37.15625 56 41.109375 55.140625 
Q 45.0625 54.296875 48.78125 52.59375 
z
" id="DejaVuSans-99"/>
      <path d="M 54.890625 33.015625 
L 54.890625 0 
L 45.90625 0 
L 45.90625 32.71875 
Q 45.90625 40.484375 42.875 44.328125 
Q 39.84375 48.1875 33.796875 48.1875 
Q 26.515625 48.1875 22.3125 43.546875 
Q 18.109375 38.921875 18.109375 30.90625 
L 18.109375 0 
L 9.078125 0 
L 9.078125 75.984375 
L 18.109375 75.984375 
L 18.109375 46.1875 
Q 21.34375 51.125 25.703125 53.5625 
Q 30.078125 56 35.796875 56 
Q 45.21875 56 50.046875 50.171875 
Q 54.890625 44.34375 54.890625 33.015625 
z
" id="DejaVuSans-104"/>
     </defs>
     <g transform="translate(353.689062 366.676562)scale(0.1 -0.1)">
      <use xlink:href="#DejaVuSans-69"/>
      <use x="63.183594" xlink:href="#DejaVuSans-112"/>
      <use x="126.660156" xlink:href="#DejaVuSans-111"/>
      <use x="187.841797" xlink:href="#DejaVuSans-99"/>
      <use x="242.822266" xlink:href="#DejaVuSans-104"/>
     </g>
    </g>
   </g>
   <g id="matplotlib.axis_2">
    <g id="ytick_1">
     <g id="line2d_17">
      <path clip-path="url(#pfde82aae16)" d="M 90 335.690523 
L 648 335.690523 
" style="fill:none;stroke:#b0b0b0;stroke-linecap:square;stroke-width:0.8;"/>
     </g>
     <g id="line2d_18">
      <defs>
       <path d="M 0 0 
L -3.5 0 
" id="me051b732c2" style="stroke:#000000;stroke-width:0.8;"/>
      </defs>
      <g>
       <use style="stroke:#000000;stroke-width:0.8;" x="90" xlink:href="#me051b732c2" y="335.690523"/>
      </g>
     </g>
     <g id="text_10">
      <!-- 0.88 -->
      <defs>
       <path d="M 10.6875 12.40625 
L 21 12.40625 
L 21 0 
L 10.6875 0 
z
" id="DejaVuSans-46"/>
       <path d="M 31.78125 34.625 
Q 24.75 34.625 20.71875 30.859375 
Q 16.703125 27.09375 16.703125 20.515625 
Q 16.703125 13.921875 20.71875 10.15625 
Q 24.75 6.390625 31.78125 6.390625 
Q 38.8125 6.390625 42.859375 10.171875 
Q 46.921875 13.96875 46.921875 20.515625 
Q 46.921875 27.09375 42.890625 30.859375 
Q 38.875 34.625 31.78125 34.625 
z
M 21.921875 38.8125 
Q 15.578125 40.375 12.03125 44.71875 
Q 8.5 49.078125 8.5 55.328125 
Q 8.5 64.0625 14.71875 69.140625 
Q 20.953125 74.21875 31.78125 74.21875 
Q 42.671875 74.21875 48.875 69.140625 
Q 55.078125 64.0625 55.078125 55.328125 
Q 55.078125 49.078125 51.53125 44.71875 
Q 48 40.375 41.703125 38.8125 
Q 48.828125 37.15625 52.796875 32.3125 
Q 56.78125 27.484375 56.78125 20.515625 
Q 56.78125 9.90625 50.3125 4.234375 
Q 43.84375 -1.421875 31.78125 -1.421875 
Q 19.734375 -1.421875 13.25 4.234375 
Q 6.78125 9.90625 6.78125 20.515625 
Q 6.78125 27.484375 10.78125 32.3125 
Q 14.796875 37.15625 21.921875 38.8125 
z
M 18.3125 54.390625 
Q 18.3125 48.734375 21.84375 45.5625 
Q 25.390625 42.390625 31.78125 42.390625 
Q 38.140625 42.390625 41.71875 45.5625 
Q 45.3125 48.734375 45.3125 54.390625 
Q 45.3125 60.0625 41.71875 63.234375 
Q 38.140625 66.40625 31.78125 66.40625 
Q 25.390625 66.40625 21.84375 63.234375 
Q 18.3125 60.0625 18.3125 54.390625 
z
" id="DejaVuSans-56"/>
      </defs>
      <g transform="translate(60.734375 339.489741)scale(0.1 -0.1)">
       <use xlink:href="#DejaVuSans-48"/>
       <use x="63.623047" xlink:href="#DejaVuSans-46"/>
       <use x="95.410156" xlink:href="#DejaVuSans-56"/>
       <use x="159.033203" xlink:href="#DejaVuSans-56"/>
      </g>
     </g>
    </g>
    <g id="ytick_2">
     <g id="line2d_19">
      <path clip-path="url(#pfde82aae16)" d="M 90 295.926619 
L 648 295.926619 
" style="fill:none;stroke:#b0b0b0;stroke-linecap:square;stroke-width:0.8;"/>
     </g>
     <g id="line2d_20">
      <g>
       <use style="stroke:#000000;stroke-width:0.8;" x="90" xlink:href="#me051b732c2" y="295.926619"/>
      </g>
     </g>
     <g id="text_11">
      <!-- 0.90 -->
      <defs>
       <path d="M 10.984375 1.515625 
L 10.984375 10.5 
Q 14.703125 8.734375 18.5 7.8125 
Q 22.3125 6.890625 25.984375 6.890625 
Q 35.75 6.890625 40.890625 13.453125 
Q 46.046875 20.015625 46.78125 33.40625 
Q 43.953125 29.203125 39.59375 26.953125 
Q 35.25 24.703125 29.984375 24.703125 
Q 19.046875 24.703125 12.671875 31.3125 
Q 6.296875 37.9375 6.296875 49.421875 
Q 6.296875 60.640625 12.9375 67.421875 
Q 19.578125 74.21875 30.609375 74.21875 
Q 43.265625 74.21875 49.921875 64.515625 
Q 56.59375 54.828125 56.59375 36.375 
Q 56.59375 19.140625 48.40625 8.859375 
Q 40.234375 -1.421875 26.421875 -1.421875 
Q 22.703125 -1.421875 18.890625 -0.6875 
Q 15.09375 0.046875 10.984375 1.515625 
z
M 30.609375 32.421875 
Q 37.25 32.421875 41.125 36.953125 
Q 45.015625 41.5 45.015625 49.421875 
Q 45.015625 57.28125 41.125 61.84375 
Q 37.25 66.40625 30.609375 66.40625 
Q 23.96875 66.40625 20.09375 61.84375 
Q 16.21875 57.28125 16.21875 49.421875 
Q 16.21875 41.5 20.09375 36.953125 
Q 23.96875 32.421875 30.609375 32.421875 
z
" id="DejaVuSans-57"/>
      </defs>
      <g transform="translate(60.734375 299.725838)scale(0.1 -0.1)">
       <use xlink:href="#DejaVuSans-48"/>
       <use x="63.623047" xlink:href="#DejaVuSans-46"/>
       <use x="95.410156" xlink:href="#DejaVuSans-57"/>
       <use x="159.033203" xlink:href="#DejaVuSans-48"/>
      </g>
     </g>
    </g>
    <g id="ytick_3">
     <g id="line2d_21">
      <path clip-path="url(#pfde82aae16)" d="M 90 256.162716 
L 648 256.162716 
" style="fill:none;stroke:#b0b0b0;stroke-linecap:square;stroke-width:0.8;"/>
     </g>
     <g id="line2d_22">
      <g>
       <use style="stroke:#000000;stroke-width:0.8;" x="90" xlink:href="#me051b732c2" y="256.162716"/>
      </g>
     </g>
     <g id="text_12">
      <!-- 0.92 -->
      <g transform="translate(60.734375 259.961935)scale(0.1 -0.1)">
       <use xlink:href="#DejaVuSans-48"/>
       <use x="63.623047" xlink:href="#DejaVuSans-46"/>
       <use x="95.410156" xlink:href="#DejaVuSans-57"/>
       <use x="159.033203" xlink:href="#DejaVuSans-50"/>
      </g>
     </g>
    </g>
    <g id="ytick_4">
     <g id="line2d_23">
      <path clip-path="url(#pfde82aae16)" d="M 90 216.398813 
L 648 216.398813 
" style="fill:none;stroke:#b0b0b0;stroke-linecap:square;stroke-width:0.8;"/>
     </g>
     <g id="line2d_24">
      <g>
       <use style="stroke:#000000;stroke-width:0.8;" x="90" xlink:href="#me051b732c2" y="216.398813"/>
      </g>
     </g>
     <g id="text_13">
      <!-- 0.94 -->
      <defs>
       <path d="M 37.796875 64.3125 
L 12.890625 25.390625 
L 37.796875 25.390625 
z
M 35.203125 72.90625 
L 47.609375 72.90625 
L 47.609375 25.390625 
L 58.015625 25.390625 
L 58.015625 17.1875 
L 47.609375 17.1875 
L 47.609375 0 
L 37.796875 0 
L 37.796875 17.1875 
L 4.890625 17.1875 
L 4.890625 26.703125 
z
" id="DejaVuSans-52"/>
      </defs>
      <g transform="translate(60.734375 220.198031)scale(0.1 -0.1)">
       <use xlink:href="#DejaVuSans-48"/>
       <use x="63.623047" xlink:href="#DejaVuSans-46"/>
       <use x="95.410156" xlink:href="#DejaVuSans-57"/>
       <use x="159.033203" xlink:href="#DejaVuSans-52"/>
      </g>
     </g>
    </g>
    <g id="ytick_5">
     <g id="line2d_25">
      <path clip-path="url(#pfde82aae16)" d="M 90 176.634909 
L 648 176.634909 
" style="fill:none;stroke:#b0b0b0;stroke-linecap:square;stroke-width:0.8;"/>
     </g>
     <g id="line2d_26">
      <g>
       <use style="stroke:#000000;stroke-width:0.8;" x="90" xlink:href="#me051b732c2" y="176.634909"/>
      </g>
     </g>
     <g id="text_14">
      <!-- 0.96 -->
      <defs>
       <path d="M 33.015625 40.375 
Q 26.375 40.375 22.484375 35.828125 
Q 18.609375 31.296875 18.609375 23.390625 
Q 18.609375 15.53125 22.484375 10.953125 
Q 26.375 6.390625 33.015625 6.390625 
Q 39.65625 6.390625 43.53125 10.953125 
Q 47.40625 15.53125 47.40625 23.390625 
Q 47.40625 31.296875 43.53125 35.828125 
Q 39.65625 40.375 33.015625 40.375 
z
M 52.59375 71.296875 
L 52.59375 62.3125 
Q 48.875 64.0625 45.09375 64.984375 
Q 41.3125 65.921875 37.59375 65.921875 
Q 27.828125 65.921875 22.671875 59.328125 
Q 17.53125 52.734375 16.796875 39.40625 
Q 19.671875 43.65625 24.015625 45.921875 
Q 28.375 48.1875 33.59375 48.1875 
Q 44.578125 48.1875 50.953125 41.515625 
Q 57.328125 34.859375 57.328125 23.390625 
Q 57.328125 12.15625 50.6875 5.359375 
Q 44.046875 -1.421875 33.015625 -1.421875 
Q 20.359375 -1.421875 13.671875 8.265625 
Q 6.984375 17.96875 6.984375 36.375 
Q 6.984375 53.65625 15.1875 63.9375 
Q 23.390625 74.21875 37.203125 74.21875 
Q 40.921875 74.21875 44.703125 73.484375 
Q 48.484375 72.75 52.59375 71.296875 
z
" id="DejaVuSans-54"/>
      </defs>
      <g transform="translate(60.734375 180.434128)scale(0.1 -0.1)">
       <use xlink:href="#DejaVuSans-48"/>
       <use x="63.623047" xlink:href="#DejaVuSans-46"/>
       <use x="95.410156" xlink:href="#DejaVuSans-57"/>
       <use x="159.033203" xlink:href="#DejaVuSans-54"/>
      </g>
     </g>
    </g>
    <g id="ytick_6">
     <g id="line2d_27">
      <path clip-path="url(#pfde82aae16)" d="M 90 136.871006 
L 648 136.871006 
" style="fill:none;stroke:#b0b0b0;stroke-linecap:square;stroke-width:0.8;"/>
     </g>
     <g id="line2d_28">
      <g>
       <use style="stroke:#000000;stroke-width:0.8;" x="90" xlink:href="#me051b732c2" y="136.871006"/>
      </g>
     </g>
     <g id="text_15">
      <!-- 0.98 -->
      <g transform="translate(60.734375 140.670225)scale(0.1 -0.1)">
       <use xlink:href="#DejaVuSans-48"/>
       <use x="63.623047" xlink:href="#DejaVuSans-46"/>
       <use x="95.410156" xlink:href="#DejaVuSans-57"/>
       <use x="159.033203" xlink:href="#DejaVuSans-56"/>
      </g>
     </g>
    </g>
    <g id="ytick_7">
     <g id="line2d_29">
      <path clip-path="url(#pfde82aae16)" d="M 90 97.107103 
L 648 97.107103 
" style="fill:none;stroke:#b0b0b0;stroke-linecap:square;stroke-width:0.8;"/>
     </g>
     <g id="line2d_30">
      <g>
       <use style="stroke:#000000;stroke-width:0.8;" x="90" xlink:href="#me051b732c2" y="97.107103"/>
      </g>
     </g>
     <g id="text_16">
      <!-- 1.00 -->
      <g transform="translate(60.734375 100.906321)scale(0.1 -0.1)">
       <use xlink:href="#DejaVuSans-49"/>
       <use x="63.623047" xlink:href="#DejaVuSans-46"/>
       <use x="95.410156" xlink:href="#DejaVuSans-48"/>
       <use x="159.033203" xlink:href="#DejaVuSans-48"/>
      </g>
     </g>
    </g>
    <g id="text_17">
     <!-- Accuracy -->
     <defs>
      <path d="M 34.1875 63.1875 
L 20.796875 26.90625 
L 47.609375 26.90625 
z
M 28.609375 72.90625 
L 39.796875 72.90625 
L 67.578125 0 
L 57.328125 0 
L 50.6875 18.703125 
L 17.828125 18.703125 
L 11.1875 0 
L 0.78125 0 
z
" id="DejaVuSans-65"/>
      <path d="M 8.5 21.578125 
L 8.5 54.6875 
L 17.484375 54.6875 
L 17.484375 21.921875 
Q 17.484375 14.15625 20.5 10.265625 
Q 23.53125 6.390625 29.59375 6.390625 
Q 36.859375 6.390625 41.078125 11.03125 
Q 45.3125 15.671875 45.3125 23.6875 
L 45.3125 54.6875 
L 54.296875 54.6875 
L 54.296875 0 
L 45.3125 0 
L 45.3125 8.40625 
Q 42.046875 3.421875 37.71875 1 
Q 33.40625 -1.421875 27.6875 -1.421875 
Q 18.265625 -1.421875 13.375 4.4375 
Q 8.5 10.296875 8.5 21.578125 
z
M 31.109375 56 
z
" id="DejaVuSans-117"/>
      <path d="M 41.109375 46.296875 
Q 39.59375 47.171875 37.8125 47.578125 
Q 36.03125 48 33.890625 48 
Q 26.265625 48 22.1875 43.046875 
Q 18.109375 38.09375 18.109375 28.8125 
L 18.109375 0 
L 9.078125 0 
L 9.078125 54.6875 
L 18.109375 54.6875 
L 18.109375 46.1875 
Q 20.953125 51.171875 25.484375 53.578125 
Q 30.03125 56 36.53125 56 
Q 37.453125 56 38.578125 55.875 
Q 39.703125 55.765625 41.0625 55.515625 
z
" id="DejaVuSans-114"/>
      <path d="M 34.28125 27.484375 
Q 23.390625 27.484375 19.1875 25 
Q 14.984375 22.515625 14.984375 16.5 
Q 14.984375 11.71875 18.140625 8.90625 
Q 21.296875 6.109375 26.703125 6.109375 
Q 34.1875 6.109375 38.703125 11.40625 
Q 43.21875 16.703125 43.21875 25.484375 
L 43.21875 27.484375 
z
M 52.203125 31.203125 
L 52.203125 0 
L 43.21875 0 
L 43.21875 8.296875 
Q 40.140625 3.328125 35.546875 0.953125 
Q 30.953125 -1.421875 24.3125 -1.421875 
Q 15.921875 -1.421875 10.953125 3.296875 
Q 6 8.015625 6 15.921875 
Q 6 25.140625 12.171875 29.828125 
Q 18.359375 34.515625 30.609375 34.515625 
L 43.21875 34.515625 
L 43.21875 35.40625 
Q 43.21875 41.609375 39.140625 45 
Q 35.0625 48.390625 27.6875 48.390625 
Q 23 48.390625 18.546875 47.265625 
Q 14.109375 46.140625 10.015625 43.890625 
L 10.015625 52.203125 
Q 14.9375 54.109375 19.578125 55.046875 
Q 24.21875 56 28.609375 56 
Q 40.484375 56 46.34375 49.84375 
Q 52.203125 43.703125 52.203125 31.203125 
z
" id="DejaVuSans-97"/>
      <path d="M 32.171875 -5.078125 
Q 28.375 -14.84375 24.75 -17.8125 
Q 21.140625 -20.796875 15.09375 -20.796875 
L 7.90625 -20.796875 
L 7.90625 -13.28125 
L 13.1875 -13.28125 
Q 16.890625 -13.28125 18.9375 -11.515625 
Q 21 -9.765625 23.484375 -3.21875 
L 25.09375 0.875 
L 2.984375 54.6875 
L 12.5 54.6875 
L 29.59375 11.921875 
L 46.6875 54.6875 
L 56.203125 54.6875 
z
" id="DejaVuSans-121"/>
     </defs>
     <g transform="translate(54.654687 235.314844)rotate(-90)scale(0.1 -0.1)">
      <use xlink:href="#DejaVuSans-65"/>
      <use x="68.392578" xlink:href="#DejaVuSans-99"/>
      <use x="123.373047" xlink:href="#DejaVuSans-99"/>
      <use x="178.353516" xlink:href="#DejaVuSans-117"/>
      <use x="241.732422" xlink:href="#DejaVuSans-114"/>
      <use x="282.845703" xlink:href="#DejaVuSans-97"/>
      <use x="344.125" xlink:href="#DejaVuSans-99"/>
      <use x="399.105469" xlink:href="#DejaVuSans-121"/>
     </g>
    </g>
   </g>
   <g id="line2d_31">
    <path clip-path="url(#pfde82aae16)" d="M 115.363636 326.945455 
L 116.757243 234.93537 
L 118.150849 218.940115 
L 119.544456 206.532582 
L 120.938062 197.189558 
L 122.331668 188.668722 
L 123.725275 189.042444 
L 125.118881 181.418536 
L 126.512488 174.841049 
L 127.906094 171.103841 
L 129.2997 168.114074 
L 130.693307 163.704167 
L 132.086913 161.162865 
L 133.480519 159.219516 
L 136.267732 153.314725 
L 137.661339 150.549191 
L 139.054945 146.363518 
L 140.448551 147.185704 
L 141.842158 147.185702 
L 143.235764 143.000029 
L 144.629371 142.32733 
L 146.022977 139.786029 
L 147.416583 140.085006 
L 148.81019 137.31947 
L 150.203796 137.767935 
L 151.597403 131.863146 
L 152.991009 132.685332 
L 154.384615 135.077147 
L 155.778222 133.657006 
L 157.171828 132.834821 
L 158.565435 131.489425 
L 159.959041 129.695565 
L 161.352647 130.667238 
L 162.746254 127.303751 
L 164.13986 127.079518 
L 165.533467 128.20068 
L 166.927073 125.734122 
L 168.320679 126.855286 
L 169.714286 126.631053 
L 171.107892 123.267566 
L 172.501499 122.594867 
L 173.895105 123.641286 
L 175.288711 123.566542 
L 176.682318 123.267565 
L 178.075924 122.071659 
L 179.46953 121.324216 
L 180.863137 120.203053 
L 182.256743 120.352542 
L 183.65035 119.156636 
L 185.043956 118.782916 
L 186.437562 118.558681 
L 187.831169 117.661752 
L 189.224775 115.793147 
L 190.618382 119.306125 
L 192.011988 115.867891 
L 193.405594 118.633426 
L 194.799201 117.885984 
L 196.192807 115.344683 
L 197.586414 115.120449 
L 200.373626 115.643659 
L 201.767233 115.419428 
L 203.160839 112.80338 
L 204.554446 114.522497 
L 205.948052 114.896218 
L 207.341658 115.49417 
L 208.735265 112.42966 
L 210.128871 113.476077 
L 211.522478 113.401334 
L 212.916084 111.682218 
L 214.30969 111.607474 
L 215.703297 113.999288 
L 217.096903 112.95287 
L 218.490509 112.354916 
L 219.884116 110.411567 
L 221.277722 111.457985 
L 222.671329 112.952868 
L 224.064935 111.607473 
L 225.458541 109.439893 
L 226.852148 110.187335 
L 228.245754 110.561055 
L 229.639361 110.336823 
L 231.032967 111.457985 
L 232.426573 110.336822 
L 233.82018 108.991428 
L 236.607393 109.664126 
L 239.394605 109.664126 
L 240.788212 107.646032 
L 242.181818 109.58938 
L 243.575425 108.617707 
L 244.969031 108.617707 
L 246.362637 106.450125 
L 247.756244 108.094497 
L 249.14985 107.571289 
L 250.543457 107.347055 
L 251.937063 107.795521 
L 253.330669 107.945008 
L 254.724276 106.450125 
L 256.117882 106.225894 
L 257.511489 107.496543 
L 258.905095 107.571288 
L 260.298701 107.421799 
L 261.692308 106.001661 
L 263.085914 107.496543 
L 264.47952 105.10473 
L 265.873127 105.328963 
L 267.266733 106.749102 
L 268.66034 104.955242 
L 270.053946 105.403706 
L 271.447552 105.328962 
L 272.841159 107.421799 
L 274.234765 107.870264 
L 275.628372 104.432033 
L 277.021978 105.403708 
L 278.415584 103.385614 
L 279.809191 105.254218 
L 281.202797 105.553196 
L 282.596404 103.908823 
L 283.99001 105.254219 
L 285.383616 105.029986 
L 286.777223 106.450125 
L 288.170829 106.225894 
L 289.564436 104.506776 
L 290.958042 105.10473 
L 292.351648 104.282545 
L 293.745255 103.684591 
L 295.138861 103.908823 
L 296.532468 106.300636 
L 297.926074 105.179474 
L 299.31968 103.535103 
L 300.713287 104.058311 
L 302.106893 104.133055 
L 303.5005 105.328963 
L 304.894106 103.908824 
L 306.287712 103.834079 
L 307.681319 104.506776 
L 309.074925 103.908824 
L 310.468531 103.983567 
L 311.862138 103.684591 
L 313.255744 105.403707 
L 314.649351 102.862405 
L 316.042957 104.058311 
L 317.436563 104.955242 
L 318.83017 102.638172 
L 320.223776 103.086638 
L 321.617383 104.506777 
L 323.010989 103.460358 
L 324.404595 103.460359 
L 325.798202 101.815987 
L 327.191808 102.339195 
L 328.585415 104.656266 
L 329.979021 104.880498 
L 331.372627 102.78766 
L 332.766234 104.506777 
L 334.15984 101.965475 
L 335.553447 103.908823 
L 336.947053 103.161382 
L 338.340659 103.834079 
L 339.734266 103.161381 
L 341.127872 103.161381 
L 342.521479 103.385614 
L 343.915085 102.712916 
L 345.308691 102.488684 
L 350.883117 102.563428 
L 352.276723 102.712916 
L 353.67033 101.89073 
L 355.063936 101.517009 
L 356.457542 101.666499 
L 357.851149 100.919056 
L 359.244755 101.741242 
L 360.638362 101.666499 
L 362.031968 102.638173 
L 363.425574 102.41394 
L 364.819181 101.591754 
L 366.212787 101.666498 
L 367.606394 102.264451 
L 369 102.114962 
L 370.393606 102.712916 
L 371.787213 102.040218 
L 374.574426 101.442266 
L 375.968032 100.9938 
L 377.361638 100.993801 
L 378.755245 101.143288 
L 380.148851 102.114962 
L 381.542458 101.292778 
L 382.936064 101.292777 
L 385.723277 101.815986 
L 387.116883 100.62008 
L 389.904096 102.040218 
L 391.297702 101.442265 
L 392.691309 100.09687 
L 394.084915 100.620079 
L 395.478521 101.890731 
L 398.265734 100.769567 
L 399.659341 100.9938 
L 401.052947 102.488683 
L 402.446553 101.292777 
L 403.84016 100.694824 
L 405.233766 100.62008 
L 406.627373 101.068545 
L 408.020979 101.218034 
L 409.414585 101.591754 
L 410.808192 100.993801 
L 412.201798 100.769567 
L 413.595405 101.068544 
L 414.989011 101.218033 
L 417.776224 100.62008 
L 419.16983 100.769568 
L 420.563437 100.09687 
L 421.957043 100.321102 
L 423.350649 100.395847 
L 424.744256 101.965475 
L 426.137862 100.321102 
L 428.925075 100.769567 
L 430.318681 100.844312 
L 431.712288 100.171614 
L 433.105894 99.872637 
L 434.4995 100.246358 
L 435.893107 100.919056 
L 437.286713 100.844313 
L 438.68032 99.947382 
L 440.073926 100.09687 
L 442.861139 99.573661 
L 444.254745 100.321103 
L 445.648352 100.919056 
L 448.435564 100.246359 
L 449.829171 100.246358 
L 451.222777 99.274684 
L 452.616384 99.57366 
L 454.00999 100.321102 
L 455.403596 99.57366 
L 456.797203 100.470592 
L 458.190809 100.395847 
L 459.584416 100.844312 
L 460.978022 99.648406 
L 462.371628 101.068544 
L 463.765235 99.872637 
L 465.158841 100.694824 
L 466.552448 99.274684 
L 467.946054 99.872638 
L 469.33966 99.648405 
L 470.733267 101.068544 
L 472.126873 100.395847 
L 473.52048 99.573661 
L 474.914086 99.797893 
L 476.307692 101.068544 
L 477.701299 99.498916 
L 479.094905 99.573661 
L 480.488511 99.274684 
L 481.882118 100.844313 
L 483.275724 100.470592 
L 486.062937 99.498916 
L 487.456543 100.844312 
L 488.85015 100.620079 
L 490.243756 100.694823 
L 491.637363 100.246358 
L 494.424575 99.72315 
L 495.818182 99.050452 
L 497.211788 99.947382 
L 499.999001 99.797893 
L 501.392607 99.125196 
L 502.786214 99.424172 
L 504.17982 99.349428 
L 505.573427 99.573661 
L 506.967033 100.022127 
L 508.360639 99.573661 
L 509.754246 99.498916 
L 513.935065 99.648406 
L 515.328671 99.274685 
L 516.722278 99.424173 
L 518.115884 99.274684 
L 519.509491 99.648405 
L 520.903097 99.050451 
L 522.296703 99.648405 
L 523.69031 99.050452 
L 525.083916 100.395848 
L 526.477522 98.82622 
L 527.871129 99.424173 
L 529.264735 99.797894 
L 530.658342 99.125196 
L 533.445554 98.900963 
L 534.839161 99.274684 
L 536.232767 99.125196 
L 537.626374 99.274684 
L 539.01998 99.797893 
L 540.413586 100.844313 
L 541.807193 98.67673 
L 543.200799 99.199941 
L 544.594406 98.900964 
L 545.988012 99.274685 
L 547.381618 99.349429 
L 548.775225 99.125197 
L 550.168831 100.096871 
L 551.562438 98.67673 
L 552.956044 99.797893 
L 554.34965 99.050451 
L 555.743257 98.452498 
L 557.136863 99.050451 
L 558.53047 99.349428 
L 559.924076 98.900963 
L 561.317682 99.573662 
L 564.104895 99.349428 
L 566.892108 99.573661 
L 568.285714 98.900964 
L 569.679321 98.078777 
L 571.072927 99.723149 
L 572.466533 98.975707 
L 573.86014 99.424173 
L 575.253746 99.573662 
L 576.647353 99.274685 
L 578.040959 100.321102 
L 579.434565 99.274684 
L 580.828172 99.349428 
L 582.221778 98.67673 
L 583.615385 98.751476 
L 585.008991 99.19994 
L 586.402597 98.900963 
L 587.796204 100.395847 
L 589.18981 98.826219 
L 590.583417 97.854545 
L 591.977023 98.377754 
L 593.370629 99.424172 
L 596.157842 98.751476 
L 597.551449 99.573662 
L 598.945055 98.377754 
L 600.338661 99.050452 
L 601.732268 98.228265 
L 603.125874 98.527242 
L 604.519481 98.228265 
L 605.913087 99.498916 
L 607.306693 98.900963 
L 608.7003 98.601986 
L 610.093906 98.900964 
L 611.487512 99.424173 
L 612.881119 98.67673 
L 614.274725 99.648405 
L 615.668332 98.975707 
L 618.455544 98.82622 
L 619.849151 98.527243 
L 621.242757 99.050451 
L 622.636364 100.022125 
L 622.636364 100.022125 
" style="fill:none;stroke:#00bfbf;stroke-linecap:square;stroke-width:1.5;"/>
   </g>
   <g id="line2d_32">
    <path clip-path="url(#pfde82aae16)" d="M 115.363636 232.792703 
L 116.757243 205.062612 
L 118.150849 218.840456 
L 119.544456 209.945899 
L 120.938062 204.365 
L 122.331668 206.457837 
L 123.725275 175.239684 
L 125.118881 181.692599 
L 126.512488 170.007593 
L 127.906094 186.052675 
L 129.2997 164.252291 
L 130.693307 160.938632 
L 132.086913 163.380276 
L 134.874126 148.38161 
L 136.267732 148.032804 
L 137.661339 158.496989 
L 139.054945 146.986385 
L 141.842158 138.091828 
L 143.235764 149.079222 
L 144.629371 137.917425 
L 146.022977 146.288773 
L 147.416583 143.672726 
L 148.81019 137.917425 
L 150.203796 140.359068 
L 151.597403 142.451905 
L 152.991009 133.208541 
L 154.384615 134.25496 
L 155.778222 127.104433 
L 157.171828 133.906154 
L 158.565435 127.976449 
L 159.959041 130.069286 
L 161.352647 134.429363 
L 162.746254 125.360403 
L 164.13986 123.790775 
L 165.533467 125.011597 
L 166.927073 120.825922 
L 168.320679 127.104433 
L 169.714286 123.267566 
L 171.107892 123.790775 
L 172.501499 125.360403 
L 173.895105 124.66279 
L 175.288711 117.337861 
L 176.682318 124.313984 
L 178.075924 123.093162 
L 179.46953 129.371674 
L 180.863137 119.430698 
L 183.65035 125.185999 
L 185.043956 117.86107 
L 186.437562 119.256295 
L 187.831169 121.000325 
L 189.224775 119.779504 
L 190.618382 121.174729 
L 192.011988 125.883612 
L 193.405594 119.081892 
L 194.799201 119.605101 
L 196.192807 118.907488 
L 197.586414 119.605101 
L 198.98002 126.406821 
L 200.373626 118.035473 
L 201.767233 120.12831 
L 203.160839 118.035473 
L 204.554446 117.163458 
L 205.948052 118.035473 
L 207.341658 116.291442 
L 208.735265 119.953907 
L 210.128871 118.733085 
L 211.522478 115.419427 
L 212.916084 122.569953 
L 214.30969 116.465845 
L 215.703297 117.337861 
L 217.096903 113.675396 
L 218.490509 115.942636 
L 219.884116 118.733085 
L 221.277722 114.896217 
L 222.671329 116.465845 
L 224.064935 115.070621 
L 225.458541 114.198605 
L 226.852148 115.245024 
L 228.245754 115.419427 
L 229.639361 111.582559 
L 231.032967 117.512264 
L 232.426573 114.373008 
L 233.82018 112.80338 
L 235.213786 117.86107 
L 236.607393 116.117039 
L 238.000999 110.012931 
L 239.394605 118.209876 
L 240.788212 114.198605 
L 242.181818 112.280171 
L 244.969031 111.233753 
L 246.362637 113.500993 
L 247.756244 116.640248 
L 249.14985 112.628977 
L 250.543457 114.896217 
L 251.937063 109.664125 
L 253.330669 111.756962 
L 254.724276 110.53614 
L 256.117882 109.664125 
L 257.511489 113.32659 
L 258.905095 109.489722 
L 260.298701 108.617706 
L 261.692308 109.315319 
L 263.085914 109.315319 
L 264.47952 108.966513 
L 265.873127 111.756962 
L 267.266733 109.489722 
L 270.053946 109.489722 
L 271.447552 108.094497 
L 272.841159 110.361737 
L 274.234765 112.105768 
L 275.628372 109.140916 
L 277.021978 112.454574 
L 279.809191 108.966513 
L 281.202797 112.628977 
L 282.596404 107.222482 
L 283.99001 109.489722 
L 285.383616 109.838528 
L 286.777223 110.012931 
L 288.170829 111.408156 
L 289.564436 108.966513 
L 290.958042 118.558682 
L 292.351648 107.745691 
L 293.745255 111.408156 
L 295.138861 106.350466 
L 296.532468 113.500993 
L 297.926074 109.489722 
L 299.31968 111.756962 
L 300.713287 107.920094 
L 302.106893 108.79211 
L 303.5005 109.140916 
L 304.894106 108.094497 
L 306.287712 107.396885 
L 307.681319 107.048079 
L 309.074925 110.187334 
L 310.468531 109.489722 
L 311.862138 108.966513 
L 313.255744 111.233753 
L 314.649351 107.745691 
L 316.042957 106.176063 
L 317.436563 109.838528 
L 318.83017 106.350466 
L 320.223776 106.524869 
L 321.617383 111.233753 
L 323.010989 110.884947 
L 324.404595 110.187334 
L 325.798202 108.2689 
L 328.585415 107.571288 
L 329.979021 108.617706 
L 331.372627 110.187334 
L 332.766234 106.873676 
L 334.15984 108.443303 
L 335.553447 108.2689 
L 336.947053 108.2689 
L 338.340659 107.920094 
L 339.734266 108.79211 
L 341.127872 107.222482 
L 342.521479 107.396885 
L 343.915085 106.873676 
L 345.308691 106.699272 
L 346.702298 105.827257 
L 348.095904 106.176063 
L 349.48951 106.699272 
L 350.883117 106.873676 
L 352.276723 106.524869 
L 353.67033 108.443303 
L 355.063936 106.176063 
L 356.457542 106.524869 
L 357.851149 106.52487 
L 359.244755 107.048079 
L 362.031968 106.350466 
L 363.425574 104.955242 
L 364.819181 105.129645 
L 366.212787 108.966513 
L 367.606394 107.048079 
L 369 107.745691 
L 370.393606 106.873676 
L 373.180819 105.827257 
L 374.574426 108.79211 
L 375.968032 106.00166 
L 377.361638 107.396885 
L 378.755245 106.524869 
L 380.148851 109.140916 
L 381.542458 106.350466 
L 382.936064 106.350466 
L 384.32967 104.780839 
L 385.723277 108.2689 
L 387.116883 107.048079 
L 388.51049 110.012931 
L 389.904096 106.350466 
L 391.297702 107.571288 
L 392.691309 106.699272 
L 394.084915 106.176063 
L 395.478521 106.873676 
L 396.872128 105.304048 
L 398.265734 105.652854 
L 399.659341 105.827257 
L 401.052947 106.699272 
L 403.84016 106.00166 
L 405.233766 106.524869 
L 406.627373 104.780839 
L 408.020979 105.478451 
L 409.414585 105.652854 
L 410.808192 106.350466 
L 412.201798 107.222482 
L 413.595405 107.571288 
L 414.989011 107.571288 
L 416.382617 105.478451 
L 417.776224 109.664125 
L 419.16983 105.304048 
L 420.563437 106.00166 
L 421.957043 106.350466 
L 423.350649 104.432032 
L 424.744256 107.048079 
L 426.137862 105.652854 
L 427.531469 106.350466 
L 428.925075 106.176063 
L 430.318681 104.257629 
L 431.712288 105.478451 
L 434.4995 105.129645 
L 435.893107 105.827257 
L 437.286713 104.606435 
L 438.68032 105.304048 
L 440.073926 104.955242 
L 441.467532 109.838528 
L 442.861139 106.176063 
L 444.254745 105.129645 
L 445.648352 105.129645 
L 447.041958 104.432032 
L 448.435564 105.129645 
L 449.829171 105.129645 
L 451.222777 105.478451 
L 452.616384 104.955242 
L 454.00999 106.176063 
L 455.403596 105.304048 
L 456.797203 103.908823 
L 458.190809 104.780839 
L 459.584416 104.083226 
L 460.978022 103.908823 
L 462.371628 104.257629 
L 463.765235 103.908823 
L 465.158841 105.478451 
L 466.552448 104.257629 
L 467.946054 106.00166 
L 469.33966 105.478451 
L 470.733267 104.257629 
L 472.126873 104.432032 
L 473.52048 105.652854 
L 474.914086 104.955242 
L 476.307692 106.873676 
L 479.094905 103.73442 
L 480.488511 105.129645 
L 481.882118 104.780839 
L 483.275724 103.560017 
L 484.669331 104.606435 
L 486.062937 105.304048 
L 487.456543 106.699272 
L 488.85015 106.524869 
L 490.243756 104.780839 
L 491.637363 107.222482 
L 493.030969 104.257629 
L 494.424575 105.478451 
L 495.818182 105.129645 
L 497.211788 104.257629 
L 498.605395 105.478451 
L 499.999001 105.129645 
L 501.392607 105.827257 
L 502.786214 104.780839 
L 504.17982 106.00166 
L 505.573427 103.73442 
L 506.967033 107.048079 
L 508.360639 104.606435 
L 509.754246 104.257629 
L 511.147852 106.524869 
L 512.541459 105.129645 
L 513.935065 106.524869 
L 515.328671 105.129645 
L 516.722278 105.652854 
L 518.115884 106.350466 
L 519.509491 106.176063 
L 520.903097 106.524869 
L 522.296703 105.478451 
L 523.69031 106.524869 
L 525.083916 105.304048 
L 526.477522 104.606435 
L 527.871129 105.129645 
L 529.264735 107.396885 
L 530.658342 105.129645 
L 532.051948 104.083226 
L 533.445554 104.257629 
L 534.839161 105.478451 
L 537.626374 103.73442 
L 539.01998 105.478451 
L 540.413586 106.00166 
L 541.807193 103.908823 
L 543.200799 105.129645 
L 544.594406 107.048079 
L 545.988012 106.524869 
L 547.381618 105.129645 
L 548.775225 103.211211 
L 550.168831 104.606435 
L 551.562438 105.304048 
L 552.956044 102.688002 
L 554.34965 103.036808 
L 555.743257 103.560017 
L 557.136863 104.606435 
L 558.53047 103.385614 
L 559.924076 103.211211 
L 561.317682 103.385614 
L 562.711289 105.129645 
L 564.104895 103.73442 
L 565.498501 103.036808 
L 566.892108 103.211211 
L 568.285714 104.432032 
L 569.679321 103.908823 
L 571.072927 104.257629 
L 572.466533 104.083226 
L 573.86014 104.432032 
L 575.253746 104.432032 
L 576.647353 105.304048 
L 578.040959 103.560017 
L 579.434565 104.257629 
L 580.828172 104.606435 
L 582.221778 106.873676 
L 583.615385 104.257629 
L 585.008991 104.606435 
L 586.402597 106.524869 
L 587.796204 105.304048 
L 589.18981 104.780839 
L 590.583417 103.908823 
L 591.977023 103.560017 
L 593.370629 103.73442 
L 594.764236 104.955242 
L 596.157842 104.083226 
L 597.551449 109.664125 
L 598.945055 104.955242 
L 600.338661 104.780838 
L 601.732268 104.432032 
L 603.125874 105.304048 
L 604.519481 104.257629 
L 605.913087 104.432032 
L 607.306693 104.432032 
L 608.7003 104.083226 
L 610.093906 104.780839 
L 611.487512 103.73442 
L 612.881119 104.257629 
L 614.274725 104.606435 
L 615.668332 103.036808 
L 618.455544 104.432032 
L 619.849151 103.560017 
L 621.242757 104.432032 
L 622.636364 106.00166 
L 622.636364 106.00166 
" style="fill:none;stroke:#ff0000;stroke-linecap:square;stroke-width:1.5;"/>
   </g>
   <g id="patch_3">
    <path d="M 90 338.4 
L 90 86.4 
" style="fill:none;stroke:#000000;stroke-linecap:square;stroke-linejoin:miter;stroke-width:0.8;"/>
   </g>
   <g id="patch_4">
    <path d="M 648 338.4 
L 648 86.4 
" style="fill:none;stroke:#000000;stroke-linecap:square;stroke-linejoin:miter;stroke-width:0.8;"/>
   </g>
   <g id="patch_5">
    <path d="M 90 338.4 
L 648 338.4 
" style="fill:none;stroke:#000000;stroke-linecap:square;stroke-linejoin:miter;stroke-width:0.8;"/>
   </g>
   <g id="patch_6">
    <path d="M 90 86.4 
L 648 86.4 
" style="fill:none;stroke:#000000;stroke-linecap:square;stroke-linejoin:miter;stroke-width:0.8;"/>
   </g>
   <g id="legend_1">
    <g id="patch_7">
     <path d="M 97 123.75625 
L 154.440625 123.75625 
Q 156.440625 123.75625 156.440625 121.75625 
L 156.440625 93.4 
Q 156.440625 91.4 154.440625 91.4 
L 97 91.4 
Q 95 91.4 95 93.4 
L 95 121.75625 
Q 95 123.75625 97 123.75625 
z
" style="fill:#ffffff;opacity:0.8;stroke:#cccccc;stroke-linejoin:miter;"/>
    </g>
    <g id="line2d_33">
     <path d="M 99 99.498437 
L 119 99.498437 
" style="fill:none;stroke:#00bfbf;stroke-linecap:square;stroke-width:1.5;"/>
    </g>
    <g id="line2d_34"/>
    <g id="text_18">
     <!-- Train -->
     <defs>
      <path d="M -0.296875 72.90625 
L 61.375 72.90625 
L 61.375 64.59375 
L 35.5 64.59375 
L 35.5 0 
L 25.59375 0 
L 25.59375 64.59375 
L -0.296875 64.59375 
z
" id="DejaVuSans-84"/>
      <path d="M 9.421875 54.6875 
L 18.40625 54.6875 
L 18.40625 0 
L 9.421875 0 
z
M 9.421875 75.984375 
L 18.40625 75.984375 
L 18.40625 64.59375 
L 9.421875 64.59375 
z
" id="DejaVuSans-105"/>
      <path d="M 54.890625 33.015625 
L 54.890625 0 
L 45.90625 0 
L 45.90625 32.71875 
Q 45.90625 40.484375 42.875 44.328125 
Q 39.84375 48.1875 33.796875 48.1875 
Q 26.515625 48.1875 22.3125 43.546875 
Q 18.109375 38.921875 18.109375 30.90625 
L 18.109375 0 
L 9.078125 0 
L 9.078125 54.6875 
L 18.109375 54.6875 
L 18.109375 46.1875 
Q 21.34375 51.125 25.703125 53.5625 
Q 30.078125 56 35.796875 56 
Q 45.21875 56 50.046875 50.171875 
Q 54.890625 44.34375 54.890625 33.015625 
z
" id="DejaVuSans-110"/>
     </defs>
     <g transform="translate(127 102.998437)scale(0.1 -0.1)">
      <use xlink:href="#DejaVuSans-84"/>
      <use x="60.865234" xlink:href="#DejaVuSans-114"/>
      <use x="101.978516" xlink:href="#DejaVuSans-97"/>
      <use x="163.257812" xlink:href="#DejaVuSans-105"/>
      <use x="191.041016" xlink:href="#DejaVuSans-110"/>
     </g>
    </g>
    <g id="line2d_35">
     <path d="M 99 114.176562 
L 119 114.176562 
" style="fill:none;stroke:#ff0000;stroke-linecap:square;stroke-width:1.5;"/>
    </g>
    <g id="line2d_36"/>
    <g id="text_19">
     <!-- Eval -->
     <defs>
      <path d="M 2.984375 54.6875 
L 12.5 54.6875 
L 29.59375 8.796875 
L 46.6875 54.6875 
L 56.203125 54.6875 
L 35.6875 0 
L 23.484375 0 
z
" id="DejaVuSans-118"/>
      <path d="M 9.421875 75.984375 
L 18.40625 75.984375 
L 18.40625 0 
L 9.421875 0 
z
" id="DejaVuSans-108"/>
     </defs>
     <g transform="translate(127 117.676562)scale(0.1 -0.1)">
      <use xlink:href="#DejaVuSans-69"/>
      <use x="63.183594" xlink:href="#DejaVuSans-118"/>
      <use x="122.363281" xlink:href="#DejaVuSans-97"/>
      <use x="183.642578" xlink:href="#DejaVuSans-108"/>
     </g>
    </g>
   </g>
  </g>
  <g id="axes_2">
   <g id="patch_8">
    <path d="M 90 640.8 
L 648 640.8 
L 648 388.8 
L 90 388.8 
z
" style="fill:#ffffff;"/>
   </g>
   <g id="matplotlib.axis_3">
    <g id="xtick_9">
     <g id="line2d_37">
      <path clip-path="url(#p7b6e96e397)" d="M 115.363636 640.8 
L 115.363636 388.8 
" style="fill:none;stroke:#b0b0b0;stroke-linecap:square;stroke-width:0.8;"/>
     </g>
     <g id="line2d_38">
      <g>
       <use style="stroke:#000000;stroke-width:0.8;" x="115.363636" xlink:href="#me16718ff9b" y="640.8"/>
      </g>
     </g>
     <g id="text_20">
      <!-- 0 -->
      <g transform="translate(112.182386 655.398438)scale(0.1 -0.1)">
       <use xlink:href="#DejaVuSans-48"/>
      </g>
     </g>
    </g>
    <g id="xtick_10">
     <g id="line2d_39">
      <path clip-path="url(#p7b6e96e397)" d="M 185.043956 640.8 
L 185.043956 388.8 
" style="fill:none;stroke:#b0b0b0;stroke-linecap:square;stroke-width:0.8;"/>
     </g>
     <g id="line2d_40">
      <g>
       <use style="stroke:#000000;stroke-width:0.8;" x="185.043956" xlink:href="#me16718ff9b" y="640.8"/>
      </g>
     </g>
     <g id="text_21">
      <!-- 50 -->
      <g transform="translate(178.681456 655.398438)scale(0.1 -0.1)">
       <use xlink:href="#DejaVuSans-53"/>
       <use x="63.623047" xlink:href="#DejaVuSans-48"/>
      </g>
     </g>
    </g>
    <g id="xtick_11">
     <g id="line2d_41">
      <path clip-path="url(#p7b6e96e397)" d="M 254.724276 640.8 
L 254.724276 388.8 
" style="fill:none;stroke:#b0b0b0;stroke-linecap:square;stroke-width:0.8;"/>
     </g>
     <g id="line2d_42">
      <g>
       <use style="stroke:#000000;stroke-width:0.8;" x="254.724276" xlink:href="#me16718ff9b" y="640.8"/>
      </g>
     </g>
     <g id="text_22">
      <!-- 100 -->
      <g transform="translate(245.180526 655.398438)scale(0.1 -0.1)">
       <use xlink:href="#DejaVuSans-49"/>
       <use x="63.623047" xlink:href="#DejaVuSans-48"/>
       <use x="127.246094" xlink:href="#DejaVuSans-48"/>
      </g>
     </g>
    </g>
    <g id="xtick_12">
     <g id="line2d_43">
      <path clip-path="url(#p7b6e96e397)" d="M 324.404595 640.8 
L 324.404595 388.8 
" style="fill:none;stroke:#b0b0b0;stroke-linecap:square;stroke-width:0.8;"/>
     </g>
     <g id="line2d_44">
      <g>
       <use style="stroke:#000000;stroke-width:0.8;" x="324.404595" xlink:href="#me16718ff9b" y="640.8"/>
      </g>
     </g>
     <g id="text_23">
      <!-- 150 -->
      <g transform="translate(314.860845 655.398438)scale(0.1 -0.1)">
       <use xlink:href="#DejaVuSans-49"/>
       <use x="63.623047" xlink:href="#DejaVuSans-53"/>
       <use x="127.246094" xlink:href="#DejaVuSans-48"/>
      </g>
     </g>
    </g>
    <g id="xtick_13">
     <g id="line2d_45">
      <path clip-path="url(#p7b6e96e397)" d="M 394.084915 640.8 
L 394.084915 388.8 
" style="fill:none;stroke:#b0b0b0;stroke-linecap:square;stroke-width:0.8;"/>
     </g>
     <g id="line2d_46">
      <g>
       <use style="stroke:#000000;stroke-width:0.8;" x="394.084915" xlink:href="#me16718ff9b" y="640.8"/>
      </g>
     </g>
     <g id="text_24">
      <!-- 200 -->
      <g transform="translate(384.541165 655.398438)scale(0.1 -0.1)">
       <use xlink:href="#DejaVuSans-50"/>
       <use x="63.623047" xlink:href="#DejaVuSans-48"/>
       <use x="127.246094" xlink:href="#DejaVuSans-48"/>
      </g>
     </g>
    </g>
    <g id="xtick_14">
     <g id="line2d_47">
      <path clip-path="url(#p7b6e96e397)" d="M 463.765235 640.8 
L 463.765235 388.8 
" style="fill:none;stroke:#b0b0b0;stroke-linecap:square;stroke-width:0.8;"/>
     </g>
     <g id="line2d_48">
      <g>
       <use style="stroke:#000000;stroke-width:0.8;" x="463.765235" xlink:href="#me16718ff9b" y="640.8"/>
      </g>
     </g>
     <g id="text_25">
      <!-- 250 -->
      <g transform="translate(454.221485 655.398438)scale(0.1 -0.1)">
       <use xlink:href="#DejaVuSans-50"/>
       <use x="63.623047" xlink:href="#DejaVuSans-53"/>
       <use x="127.246094" xlink:href="#DejaVuSans-48"/>
      </g>
     </g>
    </g>
    <g id="xtick_15">
     <g id="line2d_49">
      <path clip-path="url(#p7b6e96e397)" d="M 533.445554 640.8 
L 533.445554 388.8 
" style="fill:none;stroke:#b0b0b0;stroke-linecap:square;stroke-width:0.8;"/>
     </g>
     <g id="line2d_50">
      <g>
       <use style="stroke:#000000;stroke-width:0.8;" x="533.445554" xlink:href="#me16718ff9b" y="640.8"/>
      </g>
     </g>
     <g id="text_26">
      <!-- 300 -->
      <g transform="translate(523.901804 655.398438)scale(0.1 -0.1)">
       <use xlink:href="#DejaVuSans-51"/>
       <use x="63.623047" xlink:href="#DejaVuSans-48"/>
       <use x="127.246094" xlink:href="#DejaVuSans-48"/>
      </g>
     </g>
    </g>
    <g id="xtick_16">
     <g id="line2d_51">
      <path clip-path="url(#p7b6e96e397)" d="M 603.125874 640.8 
L 603.125874 388.8 
" style="fill:none;stroke:#b0b0b0;stroke-linecap:square;stroke-width:0.8;"/>
     </g>
     <g id="line2d_52">
      <g>
       <use style="stroke:#000000;stroke-width:0.8;" x="603.125874" xlink:href="#me16718ff9b" y="640.8"/>
      </g>
     </g>
     <g id="text_27">
      <!-- 350 -->
      <g transform="translate(593.582124 655.398438)scale(0.1 -0.1)">
       <use xlink:href="#DejaVuSans-51"/>
       <use x="63.623047" xlink:href="#DejaVuSans-53"/>
       <use x="127.246094" xlink:href="#DejaVuSans-48"/>
      </g>
     </g>
    </g>
    <g id="text_28">
     <!-- Epoch -->
     <g transform="translate(353.689062 669.076563)scale(0.1 -0.1)">
      <use xlink:href="#DejaVuSans-69"/>
      <use x="63.183594" xlink:href="#DejaVuSans-112"/>
      <use x="126.660156" xlink:href="#DejaVuSans-111"/>
      <use x="187.841797" xlink:href="#DejaVuSans-99"/>
      <use x="242.822266" xlink:href="#DejaVuSans-104"/>
     </g>
    </g>
   </g>
   <g id="matplotlib.axis_4">
    <g id="ytick_8">
     <g id="line2d_53">
      <path clip-path="url(#p7b6e96e397)" d="M 90 630.806175 
L 648 630.806175 
" style="fill:none;stroke:#b0b0b0;stroke-linecap:square;stroke-width:0.8;"/>
     </g>
     <g id="line2d_54">
      <g>
       <use style="stroke:#000000;stroke-width:0.8;" x="90" xlink:href="#me051b732c2" y="630.806175"/>
      </g>
     </g>
     <g id="text_29">
      <!-- 0.00 -->
      <g transform="translate(60.734375 634.605394)scale(0.1 -0.1)">
       <use xlink:href="#DejaVuSans-48"/>
       <use x="63.623047" xlink:href="#DejaVuSans-46"/>
       <use x="95.410156" xlink:href="#DejaVuSans-48"/>
       <use x="159.033203" xlink:href="#DejaVuSans-48"/>
      </g>
     </g>
    </g>
    <g id="ytick_9">
     <g id="line2d_55">
      <path clip-path="url(#p7b6e96e397)" d="M 90 594.72297 
L 648 594.72297 
" style="fill:none;stroke:#b0b0b0;stroke-linecap:square;stroke-width:0.8;"/>
     </g>
     <g id="line2d_56">
      <g>
       <use style="stroke:#000000;stroke-width:0.8;" x="90" xlink:href="#me051b732c2" y="594.72297"/>
      </g>
     </g>
     <g id="text_30">
      <!-- 0.05 -->
      <g transform="translate(60.734375 598.522189)scale(0.1 -0.1)">
       <use xlink:href="#DejaVuSans-48"/>
       <use x="63.623047" xlink:href="#DejaVuSans-46"/>
       <use x="95.410156" xlink:href="#DejaVuSans-48"/>
       <use x="159.033203" xlink:href="#DejaVuSans-53"/>
      </g>
     </g>
    </g>
    <g id="ytick_10">
     <g id="line2d_57">
      <path clip-path="url(#p7b6e96e397)" d="M 90 558.639764 
L 648 558.639764 
" style="fill:none;stroke:#b0b0b0;stroke-linecap:square;stroke-width:0.8;"/>
     </g>
     <g id="line2d_58">
      <g>
       <use style="stroke:#000000;stroke-width:0.8;" x="90" xlink:href="#me051b732c2" y="558.639764"/>
      </g>
     </g>
     <g id="text_31">
      <!-- 0.10 -->
      <g transform="translate(60.734375 562.438983)scale(0.1 -0.1)">
       <use xlink:href="#DejaVuSans-48"/>
       <use x="63.623047" xlink:href="#DejaVuSans-46"/>
       <use x="95.410156" xlink:href="#DejaVuSans-49"/>
       <use x="159.033203" xlink:href="#DejaVuSans-48"/>
      </g>
     </g>
    </g>
    <g id="ytick_11">
     <g id="line2d_59">
      <path clip-path="url(#p7b6e96e397)" d="M 90 522.556558 
L 648 522.556558 
" style="fill:none;stroke:#b0b0b0;stroke-linecap:square;stroke-width:0.8;"/>
     </g>
     <g id="line2d_60">
      <g>
       <use style="stroke:#000000;stroke-width:0.8;" x="90" xlink:href="#me051b732c2" y="522.556558"/>
      </g>
     </g>
     <g id="text_32">
      <!-- 0.15 -->
      <g transform="translate(60.734375 526.355777)scale(0.1 -0.1)">
       <use xlink:href="#DejaVuSans-48"/>
       <use x="63.623047" xlink:href="#DejaVuSans-46"/>
       <use x="95.410156" xlink:href="#DejaVuSans-49"/>
       <use x="159.033203" xlink:href="#DejaVuSans-53"/>
      </g>
     </g>
    </g>
    <g id="ytick_12">
     <g id="line2d_61">
      <path clip-path="url(#p7b6e96e397)" d="M 90 486.473353 
L 648 486.473353 
" style="fill:none;stroke:#b0b0b0;stroke-linecap:square;stroke-width:0.8;"/>
     </g>
     <g id="line2d_62">
      <g>
       <use style="stroke:#000000;stroke-width:0.8;" x="90" xlink:href="#me051b732c2" y="486.473353"/>
      </g>
     </g>
     <g id="text_33">
      <!-- 0.20 -->
      <g transform="translate(60.734375 490.272572)scale(0.1 -0.1)">
       <use xlink:href="#DejaVuSans-48"/>
       <use x="63.623047" xlink:href="#DejaVuSans-46"/>
       <use x="95.410156" xlink:href="#DejaVuSans-50"/>
       <use x="159.033203" xlink:href="#DejaVuSans-48"/>
      </g>
     </g>
    </g>
    <g id="ytick_13">
     <g id="line2d_63">
      <path clip-path="url(#p7b6e96e397)" d="M 90 450.390147 
L 648 450.390147 
" style="fill:none;stroke:#b0b0b0;stroke-linecap:square;stroke-width:0.8;"/>
     </g>
     <g id="line2d_64">
      <g>
       <use style="stroke:#000000;stroke-width:0.8;" x="90" xlink:href="#me051b732c2" y="450.390147"/>
      </g>
     </g>
     <g id="text_34">
      <!-- 0.25 -->
      <g transform="translate(60.734375 454.189366)scale(0.1 -0.1)">
       <use xlink:href="#DejaVuSans-48"/>
       <use x="63.623047" xlink:href="#DejaVuSans-46"/>
       <use x="95.410156" xlink:href="#DejaVuSans-50"/>
       <use x="159.033203" xlink:href="#DejaVuSans-53"/>
      </g>
     </g>
    </g>
    <g id="ytick_14">
     <g id="line2d_65">
      <path clip-path="url(#p7b6e96e397)" d="M 90 414.306941 
L 648 414.306941 
" style="fill:none;stroke:#b0b0b0;stroke-linecap:square;stroke-width:0.8;"/>
     </g>
     <g id="line2d_66">
      <g>
       <use style="stroke:#000000;stroke-width:0.8;" x="90" xlink:href="#me051b732c2" y="414.306941"/>
      </g>
     </g>
     <g id="text_35">
      <!-- 0.30 -->
      <g transform="translate(60.734375 418.10616)scale(0.1 -0.1)">
       <use xlink:href="#DejaVuSans-48"/>
       <use x="63.623047" xlink:href="#DejaVuSans-46"/>
       <use x="95.410156" xlink:href="#DejaVuSans-51"/>
       <use x="159.033203" xlink:href="#DejaVuSans-48"/>
      </g>
     </g>
    </g>
    <g id="text_36">
     <!-- Loss -->
     <defs>
      <path d="M 9.8125 72.90625 
L 19.671875 72.90625 
L 19.671875 8.296875 
L 55.171875 8.296875 
L 55.171875 0 
L 9.8125 0 
z
" id="DejaVuSans-76"/>
      <path d="M 44.28125 53.078125 
L 44.28125 44.578125 
Q 40.484375 46.53125 36.375 47.5 
Q 32.28125 48.484375 27.875 48.484375 
Q 21.1875 48.484375 17.84375 46.4375 
Q 14.5 44.390625 14.5 40.28125 
Q 14.5 37.15625 16.890625 35.375 
Q 19.28125 33.59375 26.515625 31.984375 
L 29.59375 31.296875 
Q 39.15625 29.25 43.1875 25.515625 
Q 47.21875 21.78125 47.21875 15.09375 
Q 47.21875 7.46875 41.1875 3.015625 
Q 35.15625 -1.421875 24.609375 -1.421875 
Q 20.21875 -1.421875 15.453125 -0.5625 
Q 10.6875 0.296875 5.421875 2 
L 5.421875 11.28125 
Q 10.40625 8.6875 15.234375 7.390625 
Q 20.0625 6.109375 24.8125 6.109375 
Q 31.15625 6.109375 34.5625 8.28125 
Q 37.984375 10.453125 37.984375 14.40625 
Q 37.984375 18.0625 35.515625 20.015625 
Q 33.0625 21.96875 24.703125 23.78125 
L 21.578125 24.515625 
Q 13.234375 26.265625 9.515625 29.90625 
Q 5.8125 33.546875 5.8125 39.890625 
Q 5.8125 47.609375 11.28125 51.796875 
Q 16.75 56 26.8125 56 
Q 31.78125 56 36.171875 55.265625 
Q 40.578125 54.546875 44.28125 53.078125 
z
" id="DejaVuSans-115"/>
     </defs>
     <g transform="translate(54.654688 525.853906)rotate(-90)scale(0.1 -0.1)">
      <use xlink:href="#DejaVuSans-76"/>
      <use x="55.697266" xlink:href="#DejaVuSans-111"/>
      <use x="116.878906" xlink:href="#DejaVuSans-115"/>
      <use x="168.978516" xlink:href="#DejaVuSans-115"/>
     </g>
    </g>
   </g>
   <g id="line2d_67">
    <path clip-path="url(#p7b6e96e397)" d="M 115.363636 400.254545 
L 116.757243 489.393104 
L 118.150849 510.432011 
L 119.544456 525.443847 
L 122.331668 542.568499 
L 123.725275 545.254731 
L 125.118881 549.575087 
L 126.512488 554.552798 
L 127.906094 558.533581 
L 129.2997 561.173234 
L 130.693307 564.791083 
L 132.086913 568.765067 
L 133.480519 569.499406 
L 134.874126 570.720705 
L 136.267732 573.935873 
L 137.661339 575.721806 
L 139.054945 579.425385 
L 140.448551 579.688362 
L 143.235764 583.185713 
L 144.629371 585.332898 
L 146.022977 586.83941 
L 147.416583 587.040518 
L 148.81019 588.508191 
L 150.203796 588.410176 
L 151.597403 592.767542 
L 152.991009 593.035455 
L 154.384615 592.236595 
L 155.778222 594.332256 
L 157.171828 595.651368 
L 158.565435 596.593344 
L 159.959041 596.968204 
L 161.352647 596.947961 
L 162.746254 599.17688 
L 164.13986 599.479778 
L 165.533467 599.404425 
L 166.927073 600.680235 
L 168.320679 601.243075 
L 169.714286 601.433301 
L 171.107892 603.585242 
L 172.501499 604.416923 
L 173.895105 604.00446 
L 175.288711 604.245799 
L 176.682318 604.755764 
L 178.075924 606.004204 
L 179.46953 606.635408 
L 180.863137 606.841361 
L 182.256743 607.513305 
L 183.65035 608.6296 
L 185.043956 608.512328 
L 186.437562 608.569022 
L 187.831169 610.197176 
L 189.224775 610.801425 
L 190.618382 609.77509 
L 192.011988 611.172028 
L 193.405594 609.125326 
L 194.799201 611.047176 
L 196.192807 611.567103 
L 197.586414 611.791521 
L 200.373626 611.796034 
L 201.767233 613.028571 
L 203.160839 614.925685 
L 204.554446 613.154454 
L 205.948052 612.836245 
L 207.341658 613.138435 
L 208.735265 614.942852 
L 210.128871 614.20037 
L 211.522478 614.002301 
L 214.30969 615.540105 
L 215.703297 614.254891 
L 217.096903 615.176055 
L 218.490509 614.961289 
L 219.884116 616.722796 
L 221.277722 616.432262 
L 222.671329 615.927291 
L 224.064935 616.927323 
L 225.458541 618.15571 
L 226.852148 617.35451 
L 228.245754 617.639098 
L 229.639361 616.945281 
L 231.032967 617.557352 
L 232.426573 617.796847 
L 233.82018 619.083388 
L 236.607393 618.44437 
L 238.000999 618.240196 
L 239.394605 617.767546 
L 240.788212 619.560109 
L 242.181818 618.393139 
L 243.575425 619.008892 
L 244.969031 619.163421 
L 246.362637 621.271013 
L 247.756244 619.469479 
L 250.543457 620.409745 
L 251.937063 619.673083 
L 253.330669 619.767361 
L 254.724276 621.142104 
L 256.117882 621.614171 
L 257.511489 619.827719 
L 260.298701 620.166709 
L 261.692308 621.56351 
L 263.085914 620.983303 
L 264.47952 621.928203 
L 267.266733 620.990853 
L 268.66034 621.90128 
L 271.447552 622.473325 
L 272.841159 620.600351 
L 274.234765 621.33296 
L 275.628372 622.729578 
L 277.021978 622.162482 
L 278.415584 623.176242 
L 281.202797 622.281324 
L 282.596404 622.568677 
L 283.99001 622.029271 
L 285.383616 622.46561 
L 286.777223 621.883424 
L 288.170829 621.690598 
L 289.564436 622.797605 
L 290.958042 622.309942 
L 292.351648 623.273728 
L 295.138861 623.243722 
L 296.532468 622.428709 
L 297.926074 623.245702 
L 299.31968 623.867342 
L 300.713287 623.464628 
L 302.106893 623.361083 
L 303.5005 622.501596 
L 304.894106 623.618538 
L 306.287712 623.516514 
L 307.681319 623.219902 
L 309.074925 623.679921 
L 310.468531 624.271443 
L 311.862138 624.14002 
L 313.255744 623.057634 
L 314.649351 624.143345 
L 316.042957 623.786418 
L 317.436563 623.026785 
L 318.83017 625.171546 
L 320.223776 624.26638 
L 321.617383 623.954105 
L 323.010989 624.230886 
L 324.404595 623.990711 
L 325.798202 625.247205 
L 327.191808 625.224227 
L 328.585415 623.230295 
L 329.979021 623.719843 
L 331.372627 624.702463 
L 332.766234 624.020113 
L 334.15984 625.304797 
L 335.553447 624.378262 
L 336.947053 624.81141 
L 338.340659 624.121856 
L 339.734266 624.772527 
L 341.127872 624.409188 
L 342.521479 625.122334 
L 343.915085 625.206 
L 345.308691 624.710931 
L 346.702298 625.61918 
L 348.095904 625.227828 
L 349.48951 625.567283 
L 350.883117 625.636742 
L 352.276723 625.215453 
L 353.67033 625.699218 
L 355.063936 625.684873 
L 356.457542 626.117964 
L 357.851149 626.141611 
L 359.244755 625.379219 
L 360.638362 626.396272 
L 362.031968 625.416294 
L 364.819181 626.180064 
L 366.212787 626.354672 
L 367.606394 625.093295 
L 369 625.965605 
L 370.393606 625.406577 
L 371.787213 625.58097 
L 373.180819 626.244331 
L 374.574426 626.00188 
L 375.968032 626.622021 
L 377.361638 626.521128 
L 378.755245 626.115988 
L 380.148851 625.542411 
L 381.542458 626.133154 
L 384.32967 626.539123 
L 385.723277 626.182964 
L 387.116883 626.533795 
L 388.51049 626.501056 
L 389.904096 625.950042 
L 391.297702 626.17038 
L 392.691309 626.996005 
L 394.084915 626.810832 
L 395.478521 626.046596 
L 396.872128 626.300504 
L 398.265734 626.816092 
L 399.659341 626.602116 
L 401.052947 624.977787 
L 402.446553 626.847087 
L 403.84016 626.708697 
L 405.233766 627.033353 
L 406.627373 626.324698 
L 408.020979 626.585292 
L 409.414585 626.200442 
L 410.808192 626.714983 
L 413.595405 626.830013 
L 414.989011 626.319817 
L 416.382617 626.916054 
L 417.776224 627.098559 
L 419.16983 626.961102 
L 420.563437 627.138838 
L 421.957043 626.91904 
L 423.350649 627.259575 
L 424.744256 626.517064 
L 426.137862 626.972091 
L 427.531469 626.96298 
L 428.925075 626.720192 
L 430.318681 627.022576 
L 431.712288 627.998632 
L 433.105894 627.531706 
L 434.4995 627.216005 
L 435.893107 626.471127 
L 437.286713 626.531919 
L 438.68032 627.775089 
L 440.073926 627.743773 
L 441.467532 627.265375 
L 442.861139 627.510396 
L 445.648352 626.987906 
L 447.041958 627.166359 
L 448.435564 627.679992 
L 449.829171 627.238628 
L 451.222777 628.390981 
L 452.616384 628.250082 
L 454.00999 627.728497 
L 455.403596 627.870276 
L 456.797203 627.243928 
L 458.190809 627.00325 
L 459.584416 627.137919 
L 460.978022 628.039065 
L 462.371628 626.790601 
L 463.765235 627.465197 
L 465.158841 627.21248 
L 466.552448 628.355869 
L 467.946054 627.981276 
L 469.33966 628.162543 
L 470.733267 626.803996 
L 472.126873 627.030106 
L 473.52048 627.752733 
L 476.307692 627.221699 
L 477.701299 628.095365 
L 479.094905 627.934557 
L 480.488511 628.005552 
L 481.882118 626.962195 
L 486.062937 628.041801 
L 487.456543 627.616042 
L 488.85015 626.936652 
L 491.637363 627.548338 
L 493.030969 627.711949 
L 494.424575 628.323016 
L 495.818182 628.619003 
L 497.211788 627.69604 
L 498.605395 627.798215 
L 499.999001 628.028466 
L 501.392607 627.915292 
L 502.786214 628.34777 
L 504.17982 628.15312 
L 509.754246 627.93247 
L 511.147852 628.052638 
L 512.541459 627.956311 
L 513.935065 627.995396 
L 515.328671 628.34928 
L 516.722278 627.915574 
L 518.115884 628.243461 
L 519.509491 627.784268 
L 520.903097 627.928537 
L 522.296703 627.672609 
L 523.69031 628.675615 
L 525.083916 627.92124 
L 526.477522 628.689727 
L 527.871129 628.162732 
L 530.658342 628.260784 
L 532.051948 628.785245 
L 533.445554 628.631634 
L 534.839161 628.194457 
L 536.232767 628.717905 
L 537.626374 628.383742 
L 540.413586 627.355201 
L 541.807193 628.90603 
L 543.200799 628.440975 
L 544.594406 628.487807 
L 545.988012 628.408679 
L 547.381618 628.101121 
L 548.775225 628.160813 
L 550.168831 628.375986 
L 551.562438 628.808193 
L 552.956044 627.649781 
L 554.34965 628.595435 
L 555.743257 629.130166 
L 557.136863 628.725653 
L 558.53047 628.544834 
L 559.924076 628.213259 
L 561.317682 628.577664 
L 562.711289 628.387987 
L 564.104895 628.546677 
L 566.892108 628.244409 
L 568.285714 629.05842 
L 569.679321 629.112354 
L 571.072927 628.096965 
L 572.466533 628.924418 
L 573.86014 628.066856 
L 575.253746 628.059391 
L 576.647353 628.637071 
L 578.040959 627.610976 
L 579.434565 628.567874 
L 580.828172 627.996782 
L 582.221778 628.589241 
L 586.402597 628.804702 
L 587.796204 627.843984 
L 590.583417 629.225129 
L 591.977023 629.345455 
L 593.370629 627.942977 
L 594.764236 628.268852 
L 596.157842 629.021953 
L 597.551449 628.221559 
L 598.945055 629.25834 
L 600.338661 628.687869 
L 601.732268 629.311335 
L 603.125874 629.080739 
L 604.519481 629.294453 
L 605.913087 628.402943 
L 607.306693 628.76409 
L 608.7003 628.877703 
L 610.093906 628.699385 
L 611.487512 628.386739 
L 612.881119 628.912104 
L 614.274725 627.741399 
L 615.668332 628.675223 
L 617.061938 628.542957 
L 618.455544 628.640054 
L 619.849151 628.898274 
L 621.242757 628.856594 
L 622.636364 628.016521 
L 622.636364 628.016521 
" style="fill:none;stroke:#00bfbf;stroke-linecap:square;stroke-width:1.5;"/>
   </g>
   <g id="line2d_68">
    <path clip-path="url(#p7b6e96e397)" d="M 115.363636 484.052455 
L 116.757243 520.725475 
L 118.150849 515.216485 
L 119.544456 524.163543 
L 120.938062 525.664452 
L 122.331668 523.064084 
L 123.725275 547.807478 
L 125.118881 547.679397 
L 126.512488 553.548275 
L 127.906094 540.707022 
L 129.2997 559.686866 
L 130.693307 559.913178 
L 132.086913 557.805467 
L 133.480519 568.205795 
L 134.874126 576.301995 
L 136.267732 575.897676 
L 137.661339 568.329897 
L 139.054945 579.160049 
L 140.448551 581.311137 
L 141.842158 586.71136 
L 143.235764 576.365319 
L 144.629371 585.76378 
L 146.022977 581.027039 
L 147.416583 581.434997 
L 148.81019 587.518173 
L 150.203796 584.395216 
L 151.597403 584.398939 
L 152.991009 589.246984 
L 154.384615 590.722427 
L 155.778222 595.182934 
L 157.171828 589.808888 
L 158.565435 594.831976 
L 159.959041 595.740584 
L 161.352647 592.737687 
L 162.746254 598.88815 
L 164.13986 600.549458 
L 165.533467 601.474786 
L 166.927073 604.935368 
L 168.320679 600.296695 
L 169.714286 602.173561 
L 171.107892 600.746306 
L 172.501499 601.310972 
L 173.895105 602.804796 
L 175.288711 606.334731 
L 176.682318 602.270331 
L 178.075924 602.43675 
L 179.46953 598.288228 
L 180.863137 605.212437 
L 182.256743 604.97878 
L 183.65035 602.079831 
L 185.043956 607.747108 
L 186.437562 607.432629 
L 187.831169 606.545304 
L 189.224775 607.603024 
L 190.618382 605.487824 
L 192.011988 602.765587 
L 193.405594 605.337025 
L 194.799201 606.950657 
L 196.192807 607.641255 
L 197.586414 607.738459 
L 198.98002 601.322881 
L 200.373626 610.754609 
L 201.767233 608.462247 
L 203.160839 609.154476 
L 204.554446 610.162991 
L 205.948052 609.943093 
L 207.341658 611.351194 
L 208.735265 608.770087 
L 210.128871 610.816183 
L 211.522478 612.556386 
L 212.916084 604.627837 
L 214.30969 611.378498 
L 215.703297 610.240581 
L 217.096903 613.542713 
L 218.490509 612.14451 
L 219.884116 608.000942 
L 221.277722 612.118117 
L 222.671329 611.208045 
L 224.064935 613.079402 
L 225.458541 614.102166 
L 226.852148 612.179681 
L 228.245754 613.521188 
L 229.639361 615.058613 
L 231.032967 608.950013 
L 232.426573 612.64958 
L 233.82018 613.543118 
L 235.213786 610.576368 
L 236.607393 611.664005 
L 238.000999 615.356851 
L 239.394605 611.522941 
L 240.788212 613.955462 
L 242.181818 613.99114 
L 243.575425 616.545151 
L 244.969031 616.767644 
L 246.362637 614.827734 
L 247.756244 611.060167 
L 249.14985 616.164877 
L 250.543457 613.383791 
L 251.937063 617.840895 
L 253.330669 615.942962 
L 254.724276 616.848008 
L 256.117882 615.856898 
L 257.511489 615.26149 
L 258.905095 616.807755 
L 260.298701 616.866415 
L 261.692308 618.200943 
L 263.085914 618.32948 
L 264.47952 617.21211 
L 265.873127 615.687563 
L 267.266733 617.24478 
L 268.66034 617.255386 
L 270.053946 617.460631 
L 271.447552 618.192207 
L 272.841159 616.482585 
L 274.234765 615.006512 
L 275.628372 618.282906 
L 277.021978 614.003118 
L 279.809191 617.432946 
L 281.202797 613.905998 
L 282.596404 619.378299 
L 283.99001 618.659707 
L 285.383616 616.482969 
L 286.777223 617.864128 
L 288.170829 617.497723 
L 289.564436 619.425683 
L 290.958042 610.106513 
L 292.351648 619.57207 
L 293.745255 617.094806 
L 295.138861 619.344772 
L 296.532468 613.598509 
L 297.926074 617.927602 
L 299.31968 615.942862 
L 300.713287 618.738574 
L 302.106893 619.091788 
L 303.5005 618.120306 
L 304.894106 618.68417 
L 306.287712 618.423364 
L 307.681319 619.937795 
L 309.074925 618.257777 
L 310.468531 617.673379 
L 311.862138 617.745588 
L 313.255744 617.205878 
L 314.649351 617.96688 
L 316.042957 619.532727 
L 317.436563 617.848687 
L 318.83017 621.441425 
L 321.617383 616.189249 
L 324.404595 615.976188 
L 325.798202 618.671169 
L 327.191808 619.420219 
L 328.585415 618.317595 
L 329.979021 619.455905 
L 331.372627 616.609665 
L 332.766234 620.157414 
L 334.15984 618.415513 
L 335.553447 618.928004 
L 336.947053 618.45265 
L 338.340659 618.747312 
L 339.734266 618.622041 
L 341.127872 619.352807 
L 342.521479 618.732026 
L 343.915085 619.493702 
L 345.308691 618.990407 
L 346.702298 619.754539 
L 348.095904 619.778558 
L 349.48951 619.131967 
L 350.883117 620.277667 
L 352.276723 620.999136 
L 353.67033 618.503382 
L 355.063936 620.217483 
L 356.457542 619.96575 
L 357.851149 619.898025 
L 359.244755 618.305603 
L 360.638362 619.080234 
L 363.425574 620.91273 
L 364.819181 621.565015 
L 366.212787 619.838281 
L 367.606394 619.008169 
L 369 618.337617 
L 370.393606 619.927601 
L 371.787213 620.823936 
L 373.180819 621.352925 
L 374.574426 618.225524 
L 375.968032 621.437018 
L 377.361638 620.092705 
L 378.755245 621.211382 
L 380.148851 618.962407 
L 381.542458 621.037815 
L 382.936064 620.649713 
L 384.32967 622.51623 
L 385.723277 619.814807 
L 387.116883 621.199792 
L 388.51049 617.716058 
L 389.904096 620.562754 
L 391.297702 620.091309 
L 392.691309 620.092256 
L 395.478521 621.055465 
L 396.872128 622.502462 
L 398.265734 620.883419 
L 399.659341 621.791898 
L 401.052947 620.757652 
L 402.446553 618.852274 
L 403.84016 620.439437 
L 405.233766 620.233194 
L 406.627373 622.293682 
L 408.020979 621.469867 
L 409.414585 620.088054 
L 410.808192 619.677851 
L 412.201798 620.271042 
L 413.595405 619.587288 
L 414.989011 616.911018 
L 416.382617 621.946172 
L 417.776224 617.627214 
L 419.16983 621.104627 
L 420.563437 620.825455 
L 421.957043 619.273251 
L 423.350649 622.40469 
L 424.744256 618.828416 
L 426.137862 621.080557 
L 427.531469 620.935868 
L 428.925075 621.602699 
L 430.318681 622.936133 
L 431.712288 621.755728 
L 433.105894 621.188837 
L 434.4995 621.579739 
L 437.286713 622.524304 
L 438.68032 621.361532 
L 440.073926 621.353988 
L 441.467532 617.553781 
L 442.861139 621.478934 
L 444.254745 621.523144 
L 445.648352 622.145515 
L 447.041958 622.60596 
L 448.435564 622.064804 
L 449.829171 622.061947 
L 451.222777 621.888996 
L 454.00999 620.230215 
L 455.403596 622.042629 
L 456.797203 623.157539 
L 458.190809 621.604549 
L 459.584416 622.92051 
L 460.978022 622.843391 
L 462.371628 622.119803 
L 463.765235 622.613764 
L 465.158841 620.764663 
L 466.552448 622.110494 
L 467.946054 619.001502 
L 469.33966 620.269604 
L 470.733267 621.891021 
L 472.126873 622.351093 
L 473.52048 621.273269 
L 474.914086 623.019628 
L 476.307692 620.01779 
L 477.701299 620.937137 
L 479.094905 623.302329 
L 480.488511 620.055021 
L 481.882118 622.532748 
L 483.275724 623.265193 
L 484.669331 621.147595 
L 486.062937 621.766925 
L 487.456543 621.554452 
L 488.85015 619.617109 
L 490.243756 621.257819 
L 491.637363 619.712459 
L 493.030969 621.870287 
L 495.818182 621.379377 
L 497.211788 622.509342 
L 498.605395 622.080906 
L 499.999001 620.897521 
L 501.392607 621.707567 
L 504.17982 621.707055 
L 505.573427 622.347717 
L 506.967033 618.81477 
L 508.360639 622.616445 
L 511.147852 621.294968 
L 512.541459 622.289341 
L 513.935065 621.012714 
L 515.328671 622.620671 
L 516.722278 621.428545 
L 518.115884 621.941335 
L 519.509491 621.137222 
L 520.903097 620.103647 
L 522.296703 621.272368 
L 523.69031 620.033919 
L 525.083916 621.947669 
L 526.477522 623.320102 
L 527.871129 621.28231 
L 529.264735 619.866265 
L 530.658342 621.533685 
L 532.051948 622.788962 
L 533.445554 623.204394 
L 534.839161 621.01971 
L 536.232767 621.474377 
L 537.626374 622.597047 
L 539.01998 621.941825 
L 540.413586 619.306343 
L 541.807193 621.250891 
L 543.200799 619.678659 
L 544.594406 620.134625 
L 545.988012 620.869181 
L 547.381618 621.43147 
L 548.775225 624.130984 
L 550.168831 622.4682 
L 551.562438 622.362591 
L 552.956044 624.183702 
L 554.34965 624.113949 
L 555.743257 623.910622 
L 557.136863 622.493063 
L 558.53047 623.600519 
L 559.924076 624.45994 
L 562.711289 622.327494 
L 564.104895 623.824915 
L 565.498501 623.121363 
L 566.892108 623.543724 
L 568.285714 623.236707 
L 569.679321 624.143451 
L 571.072927 622.430399 
L 572.466533 622.747515 
L 573.86014 622.698835 
L 575.253746 623.984207 
L 576.647353 622.086075 
L 578.040959 623.378302 
L 579.434565 622.454013 
L 580.828172 622.441176 
L 582.221778 620.980943 
L 583.615385 623.251076 
L 585.008991 622.811185 
L 586.402597 621.551351 
L 587.796204 622.521525 
L 589.18981 621.240086 
L 590.583417 623.487658 
L 591.977023 623.767455 
L 593.370629 623.172344 
L 594.764236 623.034671 
L 596.157842 623.549848 
L 597.551449 616.954688 
L 598.945055 623.273887 
L 600.338661 623.305763 
L 601.732268 623.485842 
L 603.125874 621.895595 
L 604.519481 622.4317 
L 605.913087 621.893173 
L 607.306693 623.064025 
L 608.7003 622.982945 
L 610.093906 621.977518 
L 611.487512 622.818057 
L 612.881119 622.066177 
L 615.668332 623.050888 
L 617.061938 623.146406 
L 618.455544 622.087914 
L 619.849151 623.049583 
L 621.242757 621.864945 
L 622.636364 621.854358 
L 622.636364 621.854358 
" style="fill:none;stroke:#ff0000;stroke-linecap:square;stroke-width:1.5;"/>
   </g>
   <g id="patch_9">
    <path d="M 90 640.8 
L 90 388.8 
" style="fill:none;stroke:#000000;stroke-linecap:square;stroke-linejoin:miter;stroke-width:0.8;"/>
   </g>
   <g id="patch_10">
    <path d="M 648 640.8 
L 648 388.8 
" style="fill:none;stroke:#000000;stroke-linecap:square;stroke-linejoin:miter;stroke-width:0.8;"/>
   </g>
   <g id="patch_11">
    <path d="M 90 640.8 
L 648 640.8 
" style="fill:none;stroke:#000000;stroke-linecap:square;stroke-linejoin:miter;stroke-width:0.8;"/>
   </g>
   <g id="patch_12">
    <path d="M 90 388.8 
L 648 388.8 
" style="fill:none;stroke:#000000;stroke-linecap:square;stroke-linejoin:miter;stroke-width:0.8;"/>
   </g>
   <g id="legend_2">
    <g id="patch_13">
     <path d="M 583.559375 426.15625 
L 641 426.15625 
Q 643 426.15625 643 424.15625 
L 643 395.8 
Q 643 393.8 641 393.8 
L 583.559375 393.8 
Q 581.559375 393.8 581.559375 395.8 
L 581.559375 424.15625 
Q 581.559375 426.15625 583.559375 426.15625 
z
" style="fill:#ffffff;opacity:0.8;stroke:#cccccc;stroke-linejoin:miter;"/>
    </g>
    <g id="line2d_69">
     <path d="M 585.559375 401.898438 
L 605.559375 401.898438 
" style="fill:none;stroke:#00bfbf;stroke-linecap:square;stroke-width:1.5;"/>
    </g>
    <g id="line2d_70"/>
    <g id="text_37">
     <!-- Train -->
     <g transform="translate(613.559375 405.398438)scale(0.1 -0.1)">
      <use xlink:href="#DejaVuSans-84"/>
      <use x="60.865234" xlink:href="#DejaVuSans-114"/>
      <use x="101.978516" xlink:href="#DejaVuSans-97"/>
      <use x="163.257812" xlink:href="#DejaVuSans-105"/>
      <use x="191.041016" xlink:href="#DejaVuSans-110"/>
     </g>
    </g>
    <g id="line2d_71">
     <path d="M 585.559375 416.576563 
L 605.559375 416.576563 
" style="fill:none;stroke:#ff0000;stroke-linecap:square;stroke-width:1.5;"/>
    </g>
    <g id="line2d_72"/>
    <g id="text_38">
     <!-- Eval -->
     <g transform="translate(613.559375 420.076563)scale(0.1 -0.1)">
      <use xlink:href="#DejaVuSans-69"/>
      <use x="63.183594" xlink:href="#DejaVuSans-118"/>
      <use x="122.363281" xlink:href="#DejaVuSans-97"/>
      <use x="183.642578" xlink:href="#DejaVuSans-108"/>
     </g>
    </g>
   </g>
  </g>
 </g>
 <defs>
  <clipPath id="pfde82aae16">
   <rect height="252" width="558" x="90" y="86.4"/>
  </clipPath>
  <clipPath id="p7b6e96e397">
   <rect height="252" width="558" x="90" y="388.8"/>
  </clipPath>
 </defs>
</svg>
